<?xml version="1.0" encoding="UTF-8" standalone="no"?>
<!-- Created with Inkscape (http://www.inkscape.org/) -->

<svg
   width="500pt"
   height="500pt"
   viewBox="0 0 176.38889 176.38889"
   version="1.1"
   id="svg1"
   sodipodi:docname="seal.svg"
   inkscape:version="1.4 (e7c3feb100, 2024-10-09)"
   xmlns:inkscape="http://www.inkscape.org/namespaces/inkscape"
   xmlns:sodipodi="http://sodipodi.sourceforge.net/DTD/sodipodi-0.dtd"
   xmlns="http://www.w3.org/2000/svg"
   xmlns:svg="http://www.w3.org/2000/svg">
  <sodipodi:namedview
     id="namedview1"
     pagecolor="#ffffff"
     bordercolor="#000000"
     borderopacity="0.25"
     inkscape:showpageshadow="2"
     inkscape:pageopacity="0.0"
     inkscape:pagecheckerboard="0"
     inkscape:deskcolor="#d1d1d1"
     inkscape:document-units="pt"
     inkscape:zoom="0.71268238"
     inkscape:cx="397.09134"
     inkscape:cy="449.00787"
     inkscape:window-width="1920"
     inkscape:window-height="1011"
     inkscape:window-x="0"
     inkscape:window-y="0"
     inkscape:window-maximized="1"
     inkscape:current-layer="layer1" />
  <defs
     id="defs1" />
  <g
     inkscape:label="Layer 1"
     inkscape:groupmode="layer"
     id="layer1">
    <path
       style="font-size:4.00632px;font-family:Comfortaa;-inkscape-font-specification:Comfortaa;letter-spacing:3.85608px;stroke-width:0.61298"
       d="m 17.619326,72.244584 c 0.07337,-0.357117 0.04852,-0.713961 -0.139971,-1.030803 -0.02887,-0.03865 -0.06177,-0.05768 -0.101014,-0.06574 -0.125579,-0.0258 -0.220511,0.09785 -0.165298,0.20735 0.13376,0.264699 0.175541,0.539132 0.115881,0.829535 -0.139476,0.678914 -0.829228,1.109811 -1.535613,0.964691 -0.690687,-0.141894 -1.164859,-0.820086 -1.026995,-1.491152 0.0653,-0.317873 0.195282,-0.53248 0.417726,-0.699461 0.07891,-0.06559 0.07472,-0.164609 0.01596,-0.197131 -0.01376,-0.07236 -0.111767,-0.112941 -0.18122,-0.05359 -0.29824,0.237299 -0.46547,0.513782 -0.542867,0.890521 -0.175756,0.855511 0.39669,1.672502 1.256126,1.849064 0.867283,0.178174 1.71395,-0.359545 1.887287,-1.203283 z m 1.217696,-5.136633 c 0.01859,-0.06135 0.008,-0.123157 -0.0502,-0.165912 l -0.543301,-0.445091 0.450753,-1.487664 0.697813,-0.06485 c 0.06948,-0.0083 0.116417,-0.05264 0.135005,-0.113983 0.03253,-0.107357 -0.05659,-0.213897 -0.17022,-0.198092 l -3.022807,0.319031 c -0.07715,0.0059 -0.126757,0.04532 -0.146507,0.110498 -0.02091,0.06902 -0.0015,0.129315 0.05938,0.177066 l 2.33471,1.938142 c 0.08308,0.07122 0.220523,0.04589 0.255375,-0.06914 z m -0.817861,-0.796197 -1.34466,-1.102331 1.730356,-0.170618 z m 3.040039,-5.76584 c 0.03441,-0.08548 -0.0011,-0.168881 -0.08659,-0.203294 l -0.992292,-0.399484 0.221438,-0.550035 c 0.009,-0.0223 0.01795,-0.0446 0.02172,-0.06468 l 1.335936,-0.239552 c 0.06028,-0.01028 0.09976,-0.03325 0.1252,-0.09643 0.05386,-0.133792 -0.02775,-0.231433 -0.176605,-0.204982 l -1.222803,0.215998 c 0.018,-0.398721 -0.189544,-0.741404 -0.576055,-0.897008 -0.527735,-0.21246 -1.052765,0.02964 -1.272706,0.575961 l -0.279789,0.694976 c -0.03441,0.08548 0.0011,0.168881 0.08659,0.203294 l 2.612664,1.051826 c 0.08548,0.03441 0.168881,-0.0011 0.203293,-0.08659 z m -1.357615,-0.714993 -1.207846,-0.486264 0.221437,-0.550035 c 0.152612,-0.379078 0.516049,-0.552353 0.880261,-0.405726 0.34563,0.139146 0.480197,0.512913 0.327585,0.89199 z m 4.509705,-6.135563 c 0.42365,-0.818289 0.130119,-1.732687 -0.691728,-2.15818 -0.818289,-0.42365 -1.734402,-0.135519 -2.158053,0.68277 -0.425492,0.821847 -0.130119,1.732687 0.68817,2.156338 0.821847,0.425492 1.736118,0.140918 2.161611,-0.680928 z m -0.263276,-0.136305 c -0.342604,0.661746 -1.0966,0.889446 -1.758346,0.546841 -0.658189,-0.340762 -0.907488,-1.087894 -0.564883,-1.749641 0.340762,-0.658189 1.094757,-0.885888 1.752946,-0.545126 0.661747,0.342605 0.911045,1.089737 0.570283,1.747926 z m 3.300558,-5.244491 0.929124,-1.450684 c 0.04754,-0.07422 0.03029,-0.166146 -0.04056,-0.211521 -0.07422,-0.04754 -0.16156,-0.0226 -0.209096,0.05163 l -0.844855,1.319111 -2.253621,-1.443383 c -0.07422,-0.04754 -0.168306,-0.02692 -0.215843,0.0473 -0.04538,0.07085 -0.02692,0.168307 0.0473,0.215843 l 2.3717,1.51901 c 0.07422,0.04754 0.168306,0.02692 0.215843,-0.0473 z m 3.742283,-5.36696 c 0.05362,-0.06996 0.04099,-0.165444 -0.02897,-0.219059 l -0.794961,-0.609262 -0.705198,-1.918464 c -0.04761,-0.122295 -0.189097,-0.15502 -0.259771,-0.0628 -0.03899,0.05088 -0.04428,0.0973 -0.02096,0.165652 l 0.66437,1.760983 -1.881942,-0.185475 c -0.06327,-0.0031 -0.104284,0.01093 -0.14084,0.05863 -0.07311,0.0954 -0.02084,0.231361 0.120859,0.244055 l 2.03339,0.18545 0.79496,0.609262 c 0.06996,0.05362 0.165444,0.04099 0.219059,-0.02897 z m 3.593225,-4.341838 c 0.05987,-0.06469 0.05614,-0.160934 -0.0085,-0.220801 l -1.770077,-1.638178 3.149993,0.300513 c 0.04279,0.0068 0.08721,-0.01755 0.11714,-0.04989 0.05987,-0.06469 0.05614,-0.160934 -0.0085,-0.220801 l -2.067051,-1.913021 c -0.06469,-0.05987 -0.160934,-0.05614 -0.220801,0.0085 -0.05987,0.06469 -0.05614,0.160933 0.0085,0.2208 l 1.773018,1.640899 -3.147272,-0.303453 c -0.04823,-9.68e-4 -0.09287,0.01777 -0.122801,0.05011 -0.06259,0.06763 -0.05614,0.160934 0.0085,0.220801 l 2.06705,1.913022 c 0.06469,0.05987 0.158213,0.05908 0.220801,-0.0085 z m 4.986489,-5.031891 1.39969,-1.253544 c 0.06566,-0.0588 0.07363,-0.15199 0.01483,-0.217647 -0.05613,-0.06267 -0.149629,-0.06499 -0.215286,-0.0062 l -1.283298,1.149305 -0.745712,-0.832652 0.934122,-0.836587 c 0.06566,-0.0588 0.07095,-0.154974 0.01483,-0.217647 -0.0588,-0.06566 -0.152302,-0.06797 -0.217959,-0.0092 l -0.934122,0.836587 -0.737693,-0.823699 1.283298,-1.149305 c 0.06566,-0.0588 0.07363,-0.151989 0.0175,-0.214662 -0.0588,-0.06566 -0.152302,-0.06797 -0.217959,-0.0092 l -1.39969,1.253544 c -0.06566,0.0588 -0.07095,0.154975 -0.01215,0.220632 l 1.878979,2.098043 c 0.0588,0.06566 0.154975,0.07095 0.220632,0.01215 z m 9.490901,-7.317904 c 0.303277,-0.19502 0.442852,-0.503878 0.51405,-0.911661 l 0.02189,-0.114102 0.614567,0.133516 c 0.08859,0.01925 0.149241,-0.01976 0.171857,-0.110511 0.02045,-0.09412 -0.02337,-0.132632 -0.11749,-0.15308 l -0.620103,-0.13472 0.09261,-0.492999 c 0.01828,-0.09749 -0.02746,-0.153814 -0.111714,-0.166321 -0.09533,-0.01491 -0.130465,0.02674 -0.147544,0.118693 l -0.09141,0.487463 -1.063035,-0.230948 0.01636,-0.04863 c 0.126087,-0.366869 0.158546,-0.649715 -0.0049,-0.911352 -0.205855,-0.320126 -0.614602,-0.400231 -0.958316,-0.179208 -0.333604,0.214523 -0.43682,0.609552 -0.239632,0.916199 0.121346,0.188706 0.321637,0.307593 0.559713,0.359316 l 0.298978,0.06495 -0.01877,0.0597 c -0.181913,0.517083 -0.215328,0.857701 -0.03114,1.144129 0.240525,0.374042 0.675991,0.451254 1.114058,0.169558 z M 47.782561,24.56342 c -0.190413,-0.04427 -0.319206,-0.118631 -0.410215,-0.26016 -0.110512,-0.171857 -0.05759,-0.415469 0.144598,-0.545483 0.232513,-0.149515 0.462407,-0.07348 0.581586,0.111857 0.108345,0.168487 0.115836,0.387538 0.02007,0.668226 l -0.03152,0.09172 z m 0.414212,1.362641 c -0.134347,-0.208924 -0.139919,-0.476841 0.0037,-0.897873 l 0.03489,-0.09388 1.101791,0.239368 -0.02093,0.123009 c -0.0635,0.345677 -0.164092,0.581833 -0.393234,0.729182 -0.299908,0.192853 -0.572406,0.13945 -0.726255,-0.0998 z m 10.64575,-5.052427 c 0.08432,-0.03716 0.117122,-0.121674 0.07996,-0.205993 l -0.382952,-0.868846 0.590229,-0.260149 c 0.542571,-0.239143 0.75579,-0.788455 0.518263,-1.32736 -0.240759,-0.546237 -0.791688,-0.763122 -1.334258,-0.523979 l -0.733204,0.323167 c -0.08432,0.03716 -0.117121,0.121673 -0.07996,0.205992 l 1.13593,2.57721 c 0.03716,0.08432 0.121674,0.117122 0.205992,0.07996 z m -0.424182,-1.34979 -0.573621,-1.301436 0.590229,-0.260149 c 0.3776,-0.166431 0.764791,-0.0131 0.934453,0.37183 0.166431,0.3776 0.01677,0.763175 -0.360832,0.929606 z m 5.791347,-0.82116 c 0.06065,-0.02074 0.104656,-0.06542 0.105369,-0.137638 l 0.04404,-0.700959 1.470872,-0.502846 0.460152,0.528591 c 0.04727,0.05158 0.110713,0.06377 0.171367,0.04303 0.106146,-0.03629 0.140589,-0.170848 0.0614,-0.25386 l -2.02422,-2.267526 c -0.04986,-0.05917 -0.11081,-0.07644 -0.175255,-0.0544 -0.06824,0.02333 -0.105854,0.07429 -0.109063,0.151603 l -0.209921,3.027077 c -0.0093,0.109029 0.09153,0.205811 0.205257,0.166931 z m 0.168722,-1.128875 0.109596,-1.73529 1.148986,1.305019 z m 6.881086,-0.986361 c 0.08559,-0.02106 0.135446,-0.10347 0.114385,-0.189056 l -0.642366,-2.610365 0.925882,-0.227843 c 0.08169,-0.0201 0.125689,-0.09282 0.106543,-0.170623 -0.0201,-0.0817 -0.09282,-0.12569 -0.174513,-0.105586 l -2.151314,0.529402 c -0.0817,0.0201 -0.12569,0.09282 -0.105586,0.174513 0.01915,0.0778 0.09186,0.121799 0.173556,0.101695 l 0.921992,-0.226886 0.642365,2.610365 c 0.02106,0.08558 0.107361,0.134488 0.189056,0.114384 z m 5.539506,-1.137271 c 0.09107,-0.01404 0.144655,-0.08716 0.130614,-0.17823 l -0.162993,-1.057196 0.586011,-0.09035 c 0.02376,-0.0037 0.04752,-0.0073 0.0667,-0.01434 l 0.887919,1.026504 c 0.03961,0.04659 0.07952,0.06881 0.146834,0.05844 0.142543,-0.02198 0.184843,-0.142001 0.08612,-0.256497 l -0.809916,-0.941242 c 0.352051,-0.188049 0.540786,-0.541439 0.477298,-0.953231 -0.08669,-0.562255 -0.562873,-0.89015 -1.144925,-0.800412 l -0.740433,0.114156 c -0.09107,0.01404 -0.144655,0.08716 -0.130614,0.17823 l 0.429155,2.783555 c 0.01404,0.09107 0.08716,0.144655 0.17823,0.130614 z m -0.07816,-1.532392 -0.1984,-1.286849 0.586011,-0.09035 c 0.403873,-0.06227 0.73839,0.161807 0.798216,0.549842 0.05677,0.368237 -0.195943,0.674741 -0.599815,0.737008 z m 7.033302,0.74215 c 0.08795,-0.0057 0.151515,-0.07807 0.145815,-0.166023 l -0.06477,-0.999484 0.979774,-1.793837 c 0.06071,-0.116347 -0.0078,-0.244393 -0.123748,-0.236879 -0.06397,0.0041 -0.102392,0.03072 -0.138485,0.09328 l -0.888116,1.659427 -1.099376,-1.538661 c -0.03935,-0.04964 -0.07689,-0.0713 -0.136854,-0.06741 -0.119938,0.0078 -0.187868,0.136631 -0.104135,0.251647 l 1.199101,1.65264 0.06477,0.999484 c 0.0057,0.08795 0.07807,0.151515 0.166024,0.145815 z m 5.636542,-0.147114 c 0.08811,0.0021 0.15786,-0.06428 0.160008,-0.152393 l 0.02499,-1.025313 0.365244,-0.351772 1.053466,1.500444 c 0.03087,0.04884 0.07444,0.06994 0.13051,0.07131 0.112143,0.0027 0.191658,-0.13559 0.118197,-0.245584 l -1.072516,-1.540984 1.124158,-1.070654 c 0.09876,-0.105795 0.05861,-0.267074 -0.08558,-0.270589 -0.04806,-0.0012 -0.0845,0.01397 -0.125526,0.05305 l -1.497509,1.426236 0.0332,-1.361744 c 0.0021,-0.08811 -0.06428,-0.15786 -0.152392,-0.160008 -0.08411,-0.0021 -0.15786,0.06428 -0.160008,0.152392 l -0.06864,2.815607 c -0.0021,0.08811 0.06828,0.157957 0.152392,0.160008 z m 70.745808,81.738502 c -0.0453,0.361754 0.007,0.715569 0.22002,1.016729 0.0318,0.03628 0.0661,0.05268 0.10584,0.05765 0.12721,0.01592 0.21219,-0.114764 0.1486,-0.219622 -0.15402,-0.253449 -0.21709,-0.523782 -0.18029,-0.817956 0.0861,-0.687732 0.74005,-1.171162 1.45561,-1.081634 0.69966,0.08754 1.22533,0.726642 1.14028,1.406422 -0.0403,0.322002 -0.15312,0.546101 -0.36184,0.729939 -0.0736,0.07155 -0.0616,0.16994 -5.2e-4,0.197775 0.0194,0.07106 0.12024,0.10387 0.18485,0.03928 0.2788,-0.259859 0.42393,-0.548554 0.47168,-0.930185 0.10843,-0.866621 -0.52605,-1.636428 -1.39665,-1.745354 -0.87854,-0.109921 -1.68065,0.492258 -1.78758,1.346953 z m -0.81298,5.217377 c -0.0137,0.0626 0.002,0.12341 0.0631,0.16145 l 0.57665,0.40094 -0.33224,1.51853 -0.69054,0.11959 c -0.0686,0.0137 -0.11192,0.0616 -0.12562,0.12425 -0.024,0.10959 0.0733,0.20878 0.18529,0.18408 l 2.98831,-0.556 c 0.0764,-0.012 0.1228,-0.0551 0.13735,-0.12169 0.0154,-0.0704 -0.009,-0.12903 -0.0731,-0.17184 l -2.48003,-1.74833 c -0.0884,-0.0645 -0.22346,-0.0284 -0.24914,0.089 z m 0.878,0.72935 1.42726,0.99305 -1.71156,0.30631 z m -2.57457,5.98856 c -0.0275,0.0879 0.0146,0.16826 0.10249,0.19576 l 1.02093,0.31927 -0.17697,0.56591 c -0.007,0.0229 -0.0143,0.0459 -0.0165,0.0662 l -1.31264,0.34509 c -0.0593,0.015 -0.0968,0.0411 -0.11713,0.10609 -0.043,0.13765 0.0461,0.22849 0.19236,0.19028 l 1.20174,-0.3126 c 0.0138,0.39889 0.24793,0.72397 0.64559,0.84833 0.54297,0.1698 1.04707,-0.11331 1.22285,-0.6754 l 0.22361,-0.71503 c 0.0275,-0.088 -0.0145,-0.16826 -0.10249,-0.19576 l -2.68807,-0.84062 c -0.0879,-0.0275 -0.16826,0.0145 -0.19576,0.10249 z m 1.4102,0.60471 1.24271,0.38862 -0.17698,0.56591 c -0.12197,0.39002 -0.47046,0.59166 -0.84519,0.47448 -0.3556,-0.11121 -0.51948,-0.47308 -0.39751,-0.8631 z m -4.0057,6.47559 c -0.35684,0.84955 0.009,1.73755 0.86212,2.09595 0.84955,0.35685 1.73969,-0.004 2.09654,-0.85318 0.3584,-0.85324 -0.009,-1.73754 -0.85843,-2.09439 -0.85324,-0.3584 -1.74183,-0.002 -2.10023,0.85162 z m 0.27334,0.11482 c 0.28858,-0.68703 1.02195,-0.9743 1.70898,-0.68572 0.68333,0.28703 0.99158,1.01183 0.703,1.69886 -0.28703,0.68333 -1.0204,0.9706 -1.70373,0.68357 -0.68703,-0.28858 -0.99528,-1.01338 -0.70825,-1.69671 z m -2.87036,5.492 -0.81006,1.52038 c -0.0414,0.0778 -0.0169,0.16804 0.0574,0.2076 0.0778,0.0414 0.16285,0.01 0.20429,-0.0682 l 0.73659,-1.38249 2.3619,1.25841 c 0.0778,0.0414 0.16992,0.0134 0.21136,-0.0644 0.0396,-0.0743 0.0134,-0.16992 -0.0644,-0.21136 l -2.48566,-1.32435 c -0.0778,-0.0414 -0.16992,-0.0134 -0.21136,0.0644 z m -3.30106,5.64888 c -0.0479,0.074 -0.0276,0.16819 0.0464,0.21604 l 0.84109,0.54382 0.85618,1.85601 c 0.0572,0.1181 0.20087,0.13942 0.26395,0.0419 0.0348,-0.0538 0.0364,-0.10053 0.008,-0.1668 l -0.8029,-1.70229 1.89074,0.0346 c 0.0633,-0.002 0.10308,-0.0192 0.13571,-0.0697 0.0653,-0.10093 0.002,-0.23228 -0.13997,-0.23362 l -2.0417,-0.0224 -0.84108,-0.54382 c -0.074,-0.0479 -0.16819,-0.0277 -0.21605,0.0464 z m -3.23521,4.61433 c -0.0545,0.0692 -0.0431,0.16489 0.0261,0.21942 l 1.89488,1.49206 -3.16392,-0.0488 c -0.0432,-0.003 -0.0855,0.0244 -0.1128,0.0591 -0.0545,0.0693 -0.0431,0.1649 0.0261,0.21942 l 2.21279,1.74239 c 0.0692,0.0545 0.16489,0.0432 0.21942,-0.0261 0.0545,-0.0693 0.0431,-0.16489 -0.0261,-0.21942 l -1.89802,-1.49454 3.16144,0.0519 c 0.0482,-0.003 0.0912,-0.0251 0.11842,-0.0597 0.057,-0.0724 0.0431,-0.16489 -0.0261,-0.21942 l -2.21278,-1.74239 c -0.0693,-0.0545 -0.16242,-0.0463 -0.21942,0.0261 z m -4.57049,5.41234 -1.29579,1.36067 c -0.0608,0.0638 -0.0613,0.15736 0.002,0.21814 0.0609,0.058 0.15432,0.0529 0.2151,-0.0109 l 1.18804,-1.24753 0.80944,0.77085 -0.86478,0.90808 c -0.0608,0.0638 -0.0584,0.16012 0.002,0.21814 0.0638,0.0608 0.15722,0.0557 0.218,-0.008 l 0.86478,-0.90808 0.80074,0.76255 -1.18804,1.24753 c -0.0608,0.0638 -0.0613,0.15735 -4.1e-4,0.21537 0.0638,0.0608 0.15722,0.0557 0.218,-0.008 l 1.29579,-1.36067 c 0.0608,-0.0638 0.0584,-0.16011 -0.005,-0.2209 l -2.03956,-1.9423 c -0.0638,-0.0608 -0.16012,-0.0584 -0.2209,0.005 z m -8.88092,8.04704 c -0.28688,0.21843 -0.40155,0.53738 -0.44022,0.94952 l -0.0128,0.11548 -0.62321,-0.0844 c -0.0898,-0.0122 -0.14721,0.0315 -0.16256,0.12377 -0.0129,0.0954 0.0338,0.13037 0.12924,0.1433 l 0.62883,0.0852 -0.0533,0.49878 c -0.0105,0.0986 0.0396,0.15116 0.12454,0.15695 0.0962,0.007 0.12794,-0.037 0.13768,-0.13001 l 0.0525,-0.49317 1.07799,0.14601 -0.0125,0.0498 c -0.0966,0.37571 -0.10657,0.66024 0.0771,0.9081 0.23057,0.30281 0.64438,0.35028 0.9695,0.10273 0.31556,-0.24028 0.38716,-0.64224 0.1663,-0.93231 -0.13591,-0.1785 -0.34499,-0.28114 -0.58642,-0.31384 l -0.30318,-0.0411 0.014,-0.061 c 0.14038,-0.52987 0.1467,-0.87206 -0.0596,-1.143 -0.2694,-0.35381 -0.70961,-0.39628 -1.12398,-0.0808 z m 1.40897,1.58592 c 0.19332,0.029 0.3276,0.093 0.42953,0.22684 0.12378,0.16257 0.0903,0.40961 -0.10093,0.55523 -0.21994,0.16746 -0.45513,0.10988 -0.58862,-0.0654 -0.12135,-0.15937 -0.14617,-0.37714 -0.0729,-0.66453 l 0.0242,-0.0939 z m -0.52086,-1.32555 c 0.15048,0.19763 0.17725,0.46426 0.0674,0.89535 l -0.0274,0.0964 -1.11729,-0.15133 0.0111,-0.12428 c 0.0359,-0.34962 0.11748,-0.593 0.33423,-0.75804 0.28369,-0.21601 0.55956,-0.18436 0.73188,0.0419 z m -10.21162,5.88108 c -0.0811,0.0437 -0.10707,0.1306 -0.0633,0.21169 l 0.45085,0.83564 -0.56766,0.30627 c -0.52183,0.28154 -0.69068,0.84608 -0.41104,1.36438 0.28344,0.52535 0.84988,0.69773 1.37171,0.41619 l 0.70517,-0.38047 c 0.0811,-0.0437 0.10707,-0.1306 0.0633,-0.2117 l -1.33733,-2.47869 c -0.0438,-0.0811 -0.1306,-0.10707 -0.2117,-0.0633 z m 0.53021,1.31177 0.67532,1.25168 -0.56767,0.30628 c -0.36316,0.19593 -0.76132,0.0739 -0.96107,-0.29633 -0.19593,-0.36316 -0.0774,-0.75942 0.28575,-0.95536 z m -5.70762,1.27991 c -0.0588,0.0255 -0.0991,0.0736 -0.094,0.14561 l 0.0121,0.70224 -1.42601,0.61872 -0.5009,-0.49015 c -0.0512,-0.0476 -0.11546,-0.0547 -0.17426,-0.0292 -0.10291,0.0446 -0.12649,0.18153 -0.0409,0.25795 l 2.19886,2.09861 c 0.0544,0.055 0.11656,0.0673 0.17904,0.0402 0.0662,-0.0287 0.0996,-0.0825 0.0966,-0.15983 l -0.0325,-3.03418 c 5.6e-4,-0.10942 -0.10768,-0.19784 -0.21794,-0.15 z m -0.078,1.13875 0.0293,1.7385 -1.24954,-1.20908 z m -6.7802,1.53399 c -0.0836,0.0279 -0.12671,0.11401 -0.0988,0.19763 l 0.84974,2.55041 -0.90462,0.30139 c -0.0798,0.0266 -0.11783,0.10261 -0.0925,0.17862 0.0266,0.0798 0.10261,0.11784 0.18243,0.0913 l 2.1019,-0.70031 c 0.0798,-0.0266 0.11783,-0.1026 0.0912,-0.18242 -0.0253,-0.076 -0.10134,-0.11404 -0.18115,-0.0874 l -0.90082,0.30013 -0.84974,-2.55041 c -0.0279,-0.0836 -0.1178,-0.12544 -0.19762,-0.0988 z m -5.43048,1.57894 c -0.0896,0.0213 -0.13716,0.0985 -0.11584,0.18817 l 0.2476,1.04063 -0.57683,0.13725 c -0.0234,0.006 -0.0468,0.0111 -0.0653,0.0197 l -0.9677,-0.95166 c -0.0432,-0.0433 -0.0848,-0.0622 -0.15106,-0.0464 -0.14031,0.0334 -0.17281,0.15642 -0.0652,0.26259 l 0.88308,0.87297 c -0.33576,0.21578 -0.49543,0.58323 -0.39898,0.98857 0.13168,0.55345 0.63273,0.84193 1.20566,0.70561 l 0.72884,-0.17341 c 0.0896,-0.0213 0.13716,-0.0985 0.11583,-0.18817 l -0.65192,-2.73996 c -0.0213,-0.0896 -0.0985,-0.13716 -0.18817,-0.11583 z m 0.20132,1.52112 0.30138,1.26669 -0.57683,0.13725 c -0.39755,0.0946 -0.74902,-0.10182 -0.8399,-0.48378 -0.0862,-0.36247 0.14097,-0.68833 0.53851,-0.78292 z m -7.070341,-0.17283 c -0.08721,0.0128 -0.144726,0.09 -0.131952,0.17724 l 0.14516,0.991 -0.83192,1.86701 c -0.05113,0.12086 0.02749,0.24297 0.142448,0.22613 0.06342,-0.009 0.09958,-0.0389 0.130511,-0.10415 l 0.7514,-1.72564 1.219884,1.44499 c 0.0432,0.0463 0.0824,0.0649 0.14184,0.0562 0.11892,-0.0174 0.17624,-0.15133 0.0835,-0.25922 l -1.328469,-1.55056 -0.145161,-0.991 c -0.01277,-0.0872 -0.09003,-0.14473 -0.177241,-0.13195 z m -5.606169,0.60088 c -0.088,0.005 -0.152177,0.0768 -0.147229,0.16477 l 0.05757,1.024 -0.335759,0.38002 -1.170763,-1.41083 c -0.0347,-0.0462 -0.07982,-0.0637 -0.135823,-0.0606 -0.112,0.006 -0.180129,0.15057 -0.09806,0.2543 l 1.193012,1.4497 -1.034379,1.15762 c -0.08993,0.1134 -0.03693,0.27093 0.107068,0.26283 0.048,-0.003 0.0831,-0.0207 0.120851,-0.063 l 1.377914,-1.54209 0.07646,1.36 c 0.0049,0.088 0.07677,0.15218 0.164771,0.14723 0.084,-0.005 0.152177,-0.0768 0.147229,-0.16477 l -0.158102,-2.812 c -0.0049,-0.088 -0.08077,-0.15195 -0.164771,-0.14723 z"
       id="text1"
       transform="rotate(4.2965709,88.825045,87.094389)"
       aria-label="CAROLYNE &amp; PATRYK                       CAROLYNE &amp; PATRYK" />
    <path
       id="path1"
       style="fill:none;stroke:none;stroke-width:0.631737;stroke-dasharray:none;stroke-dashoffset:0"
       d="m 16.448282,73.848813 c 7.33963,-39.857842 45.502049,-66.2372374 85.238138,-58.920026 39.73609,7.317204 65.99859,45.560176 58.65891,85.418013 -7.3396,39.85785 -45.50201,66.23725 -85.238079,58.92004 C 35.371165,151.9496 9.1086519,113.70666 16.448282,73.848813 Z"
       sodipodi:nodetypes="sssss" />
    <path
       style="fill:#000000;stroke-width:1.11329"
       d="m 161.09121,93.703374 c 0.0354,-0.707127 0.10523,-3.696329 0.15539,-6.642678 0.12095,-7.122955 -0.14082,-11.885155 -0.89762,-16.327698 l -0.23837,-1.399515 -0.72697,-0.34591 c -0.39982,-0.190255 -1.49837,-0.965466 -2.4412,-1.722704 -0.94284,-0.757235 -1.78878,-1.406753 -1.87984,-1.443366 -0.0909,-0.03663 -0.67278,0.09362 -1.29266,0.289445 -1.58646,0.501169 -2.87769,0.649714 -4.47017,0.514271 -1.70853,-0.145344 -3.46212,-0.534455 -3.38954,-0.752171 0.0295,-0.08907 0.78837,-0.414945 1.68605,-0.724239 1.36224,-0.469396 1.86823,-0.572473 3.06061,-0.623486 0.91563,-0.03918 1.77473,0.01174 2.39277,0.141653 0.53037,0.111521 0.96428,0.155205 0.96428,0.09708 0,-0.150265 -1.00193,-1.398336 -2.33454,-2.908107 -0.62844,-0.712016 -1.459,-1.696342 -1.84561,-2.187402 l -0.70295,-0.892834 h -0.99261 c -1.13844,0 -1.86729,-0.296401 -2.45948,-1.0002 -1.09312,-1.299086 -0.55166,-2.99969 0.95506,-2.99969 0.45822,0 0.64079,0.09252 1.03763,0.525762 0.26489,0.289164 0.51452,0.49282 0.55476,0.452573 0.0403,-0.04032 0.11489,-0.566074 0.16581,-1.168494 0.14593,-1.727389 0.47205,-1.775752 1.51272,-0.224374 1.0595,1.579523 1.43324,3.25727 1.12276,5.04019 l -0.16581,0.952272 2.06016,2.461313 c 2.04256,2.440295 2.83186,3.219642 4.70575,4.646655 1.42545,1.085523 1.71169,1.204867 1.06482,0.443925 -1.52476,-1.793653 -2.76208,-3.376472 -2.99203,-3.827498 -0.6646,-1.303616 0.11791,-2.654924 0.98165,-1.695369 0.53902,0.598756 0.53347,0.752402 -0.0114,0.278832 -0.43037,-0.374934 -0.58192,-0.436998 -0.74224,-0.303928 -0.33159,0.275162 -0.23528,1.140455 0.21351,1.917895 0.44176,0.76542 3.38818,4.214176 3.60038,4.214176 0.0702,0 0.12738,-0.122934 0.12738,-0.273199 0,-0.578269 -1.20767,-5.057605 -2.02522,-7.511716 -0.9442,-2.834296 -3.09684,-7.9718 -3.51578,-8.39072 -0.19082,-0.19095 -0.68935,-0.323987 -1.75556,-0.468605 -1.728,-0.234392 -2.31485,-0.388971 -2.9454,-0.775852 -0.85052,-0.521841 -1.15145,-1.343715 -0.7599,-2.075357 0.2376,-0.444001 0.73134,-0.646877 1.57422,-0.646877 h 0.70153 l -0.57356,-1.10711 c -0.38758,-0.748094 -0.60004,-1.368511 -0.6552,-1.913173 -0.0765,-0.755022 -0.0579,-0.821675 0.29472,-1.052671 0.70471,-0.461759 1.48714,0.153899 2.51887,1.982023 l 0.46991,0.832605 0.54432,-0.636813 c 0.93943,-1.099062 1.89898,-1.242285 2.36317,-0.352735 0.53128,1.018093 0.25923,2.129821 -1.11424,4.553616 l -0.57066,1.007105 0.9959,2.164912 c 2.74655,5.970173 4.58662,12.10613 5.51151,18.378762 0.30457,2.065653 0.65264,5.963876 0.66326,7.428375 0.004,0.667837 0.057,1.471388 0.11527,1.785669 l 0.10637,0.571406 0.23525,-0.443 c 0.45502,-0.856854 1.38328,-3.328999 1.69265,-4.507894 0.62341,-2.375535 0.25641,-4.986116 -0.50391,-3.584587 -0.25168,0.463871 -0.29871,0.211929 -0.0587,-0.314703 0.42407,-0.930655 1.1767,0.0836 1.16112,1.56467 -0.0132,1.210911 -0.48855,3.059047 -1.32903,5.161939 -0.39727,0.994021 -0.70117,1.870823 -0.67526,1.948454 0.0617,0.185149 1.52535,-1.748576 2.08403,-2.753373 0.66386,-1.193946 1.08847,-2.442844 1.57842,-4.642736 0.24502,-1.09997 0.9389,-3.524246 1.542,-5.387278 l 1.09659,-3.387325 -0.35349,-0.278047 c -0.46727,-0.367571 -1.07457,-1.50238 -1.26954,-2.372382 -0.22899,-1.022222 -0.44149,-5.54174 -0.26866,-5.717371 0.20216,-0.205521 0.5512,0.307013 1.48359,2.178517 0.44035,0.883906 0.82393,1.6071 0.85242,1.6071 0.0288,0 0.15804,-0.319528 0.2876,-0.710057 0.57702,-1.737208 2.4393,-1.965023 3.20098,-0.391566 0.39984,0.825939 0.38833,1.74695 -0.032,2.543396 -0.42127,0.79874 -0.96905,1.167248 -2.21574,1.490604 -0.97004,0.251604 -0.99618,0.27053 -1.16092,0.841023 -0.0928,0.320993 -0.64613,2.099626 -1.22985,3.952519 -0.58371,1.852891 -1.06126,3.443923 -1.06126,3.535625 0,0.317255 0.21581,0.156606 0.57142,-0.425442 0.49044,-0.802692 1.22273,-1.368442 3.11883,-2.409535 1.15204,-0.632536 1.66308,-0.844717 1.77206,-0.735717 0.21721,0.217157 -0.18227,1.747307 -0.77135,2.955736 -0.86275,1.769472 -2.23859,2.92963 -4.5685,3.852445 l -0.94899,0.375845 -0.38903,1.098048 c -0.74403,2.100175 -1.45133,3.25932 -2.93638,4.812246 l -0.95623,0.999966 -0.17489,4.214175 c -0.0961,2.317799 -0.26171,5.049877 -0.36787,6.071275 -0.15729,1.512712 -0.18114,1.618674 -0.12833,0.571415 z m 7.739,-19.29599 c 0.86808,-0.508517 1.92923,-1.641077 2.44598,-2.610618 0.44035,-0.826183 0.97206,-2.548361 0.83048,-2.689927 -0.0397,-0.03986 -0.75986,0.296312 -1.60005,0.746994 -1.89127,1.014462 -2.80045,1.88453 -3.54602,3.393425 -0.67859,1.373376 -0.6097,1.736406 0.10599,0.558304 0.78294,-1.288855 0.95046,-1.259187 0.23266,0.04121 -0.67053,1.214687 -0.65221,1.218885 0.71428,0.163704 1.41949,-1.096155 1.45568,-1.07743 0.21441,0.110896 -1.09512,1.048306 -1.11899,1.084454 -0.5714,0.866447 0.31425,-0.125129 0.8425,-0.386308 1.17385,-0.580399 z m -16.32277,-8.133007 c 1.30545,-0.27653 1.76758,-0.661792 0.56828,-0.473724 -0.44913,0.07049 -0.88783,0.102095 -0.97491,0.07026 -0.0873,-0.03184 0.14782,-0.10588 0.52198,-0.164517 0.80455,-0.126152 1.03832,-0.358466 0.3638,-0.361597 -0.72975,-0.0032 -1.03989,-0.276405 -0.32985,-0.290379 0.51688,-0.01003 0.53832,-0.02449 0.22437,-0.149906 -1.03017,-0.411639 -3.15794,-0.266942 -4.93858,0.335846 -1.49078,0.504678 -1.55581,0.536471 -1.40496,0.687311 0.50402,0.504041 4.21089,0.719339 5.96984,0.346733 z m -0.94889,-0.310719 c 0.10316,-0.04132 0.22622,-0.03621 0.27381,0.01136 0.0475,0.04741 -0.0367,0.08125 -0.18738,0.07501 -0.16657,-0.0066 -0.20031,-0.04073 -0.0863,-0.08627 z m 17.03253,-1.786003 c -0.17091,-0.869758 -0.1147,-1.364001 0.0632,-0.553884 0.0532,0.242006 0.15559,0.403522 0.22785,0.358914 0.38434,-0.237532 -0.21628,-3.349985 -0.91113,-4.721044 -0.40488,-0.79903 -0.89627,-1.451006 -1.00902,-1.338819 -0.0418,0.04164 -0.017,1.096422 0.0598,2.344019 0.16145,2.696819 0.47019,3.927692 1.16249,4.635788 0.55555,0.568256 0.63374,0.428927 0.40671,-0.724974 z m -0.28061,-1.342517 c 0.008,-0.16641 0.0407,-0.20027 0.0863,-0.08627 0.0414,0.103098 0.0361,0.22634 -0.0114,0.273801 -0.0475,0.04741 -0.0812,-0.03685 -0.075,-0.187496 z m 3.05584,0.471658 c 0.83385,-0.472279 1.21849,-1.122339 1.21849,-2.059361 0,-1.285046 -0.58561,-2.04315 -1.57829,-2.04315 -0.58936,0 -1.00105,0.356565 -1.33529,1.156507 -0.29334,0.702049 -0.43547,1.898311 -0.26234,2.207717 0.12814,0.228746 0.16467,0.212553 0.36767,-0.162247 0.18663,-0.344563 0.2274,-0.367083 0.23701,-0.130637 0.009,0.232299 0.12095,0.165521 0.59646,-0.357132 0.4758,-0.522888 0.54258,-0.562876 0.35807,-0.214264 -0.12492,0.235707 -0.35805,0.621415 -0.51838,0.857123 -0.45059,0.662339 -0.35832,0.700925 0.50074,0.209431 1.09889,-0.62872 1.11926,-0.4491 0.0305,0.26867 -0.73614,0.485304 -0.83231,0.59052 -0.5389,0.589653 0.19637,-5.77e-4 0.61234,-0.145609 0.92432,-0.322297 z M 150.1621,58.193818 c -0.38602,-1.768614 -0.34597,-1.893013 0.13458,-0.418072 l 0.39552,1.214253 0.10732,-0.545543 c 0.13439,-0.683717 -0.10239,-1.899617 -0.5685,-2.91734 -0.3686,-0.805166 -1.15132,-1.894117 -1.36144,-1.894117 -0.22715,0 -0.32212,1.593728 -0.15634,2.622496 0.0905,0.561152 0.35196,1.405971 0.58134,1.877384 0.40509,0.832537 0.97,1.582951 1.09643,1.456512 0.0343,-0.03428 -0.0685,-0.662294 -0.22853,-1.395573 z m -3.07664,-0.218521 -0.5714,-0.503986 0.76418,0.376102 c 0.4203,0.206863 0.79894,0.341335 0.84146,0.298837 0.0426,-0.04251 -0.15653,-0.336277 -0.44279,-0.652851 -0.5927,-0.656051 -0.69795,-0.934629 -0.16335,-0.432459 0.43602,0.409612 0.65194,0.26974 0.27349,-0.177161 l -0.27292,-0.322295 0.3223,0.272919 c 0.47019,0.398193 0.53988,0.189561 0.18303,-0.547835 -0.42281,-0.873443 -1.07649,-1.415905 -1.56351,-1.29753 -1.07718,0.261837 -1.40148,1.464801 -0.65775,2.439885 0.44868,0.588249 1.15537,1.062242 1.5732,1.055186 0.23364,-0.0045 0.18151,-0.09664 -0.28571,-0.508818 z m 5.21416,-6.541639 c 0,-0.03106 -0.32385,-0.26436 -0.71972,-0.518371 -0.39581,-0.254007 -0.6942,-0.487284 -0.6631,-0.518401 0.0312,-0.03116 0.46749,0.137811 0.96969,0.3754 1.19839,0.566931 1.44615,0.555857 0.86972,-0.03886 -0.60133,-0.620413 -0.58278,-0.801922 0.0337,-0.331581 0.6162,0.469984 0.70711,0.46875 0.58747,-0.0079 -0.084,-0.334789 -0.0681,-0.359137 0.12738,-0.196777 0.19454,0.161508 0.2253,0.123445 0.24015,-0.296467 l 0.017,-0.481763 0.10372,0.428558 c 0.10334,0.428306 0.10391,0.428082 0.49113,-0.387503 0.21328,-0.448831 0.47434,-1.252382 0.58039,-1.78567 l 0.19291,-0.969605 0.0132,0.756223 c 0.0114,0.541882 -0.13098,1.141321 -0.49546,2.114922 -0.2799,0.747286 -0.48419,1.499814 -0.454,1.672283 0.0869,0.496917 1.70705,-2.918353 1.78905,-3.771463 0.18416,-1.915668 -0.88422,-2.22376 -2.1891,-0.631325 -0.29071,0.354773 -0.5842,0.645053 -0.65216,0.645053 -0.0679,0 -0.31132,-0.369635 -0.54078,-0.821408 -0.89792,-1.76797 -1.74133,-2.583832 -2.24171,-2.168554 -0.18114,0.150417 -0.2165,0.348317 -0.15502,0.868356 0.0895,0.756491 0.44211,1.516174 1.27128,2.739747 0.31028,0.457829 0.52887,0.867653 0.48583,0.910715 -0.0433,0.04308 -0.3394,-0.02616 -0.65854,-0.153862 -0.31914,-0.127685 -0.83607,-0.232164 -1.14877,-0.232164 -1.39505,0 -1.55971,1.547314 -0.23843,2.24066 0.65429,0.343348 2.38413,0.749577 2.38413,0.559884 z m -3.50454,-7.693267 c -0.68608,-0.822666 -6.93629,-7.115068 -9.14198,-9.203642 -2.4634,-2.332611 -5.03449,-4.49084 -7.76839,-6.520934 l -1.91542,-1.422304 -0.66685,0.2398 c -0.3668,0.131887 -1.43338,0.300065 -2.37024,0.373714 -2.1081,0.165729 -2.95959,0.273982 -3.14939,0.400369 -0.0806,0.05373 -0.43121,0.635863 -0.77887,1.293606 -0.83173,1.573533 -1.949,2.767592 -3.6752,3.927824 -1.28652,0.864711 -1.88537,1.130448 -1.88537,0.836646 0,-0.061 0.35105,-0.824476 0.78011,-1.696622 0.90027,-1.829956 1.76204,-2.860529 3.1459,-3.762146 0.51205,-0.333623 0.93101,-0.654911 0.93101,-0.713973 0,-0.126454 -1.7836,-0.365997 -4.2856,-0.57556 -0.98213,-0.08226 -2.159,-0.220927 -2.6153,-0.308151 l -0.82965,-0.158593 -0.58374,0.607502 c -0.71088,0.739819 -1.30522,1.004298 -2.25686,1.004298 -1.40675,0 -2.28566,-0.683693 -2.28566,-1.777998 0,-0.972099 0.66312,-1.468716 1.78607,-1.337617 0.27477,0.03208 0.49959,0.0329 0.49959,0.0018 0,-0.03108 -0.35355,-0.459215 -0.78568,-0.951418 -1.22676,-1.397308 -1.06641,-1.632797 0.82971,-1.218446 1.95927,0.428163 3.36447,1.300563 4.48378,2.78372 l 0.64685,0.85712 3.30536,0.382683 c 3.37087,0.39026 4.30592,0.40404 7.01428,0.103344 1.99304,-0.221251 1.86933,-0.307308 -0.78042,-0.54287 -2.37618,-0.211259 -3.43233,-0.450836 -4.13552,-0.938147 -0.94632,-0.655801 -0.91969,-1.519922 0.046,-1.49207 l 0.44678,0.01268 -0.46427,0.134064 c -0.58938,0.170177 -0.6091,0.550036 -0.0528,1.018105 0.55649,0.468262 1.76174,0.77781 3.73131,0.958331 0.90354,0.08281 1.98899,0.19243 2.41208,0.243597 0.62495,0.07558 0.75672,0.0554 0.70244,-0.107546 -0.0742,-0.223263 -3.3302,-2.23068 -5.76597,-3.555127 -1.88408,-1.024473 -5.05245,-2.489217 -7.41971,-3.430156 -3.01276,-1.197509 -2.56579,-1.177302 -3.94556,-0.178391 -2.19517,1.589233 -3.23266,1.927109 -4.27012,1.390619 -0.58909,-0.304626 -0.83169,-1.140273 -0.51106,-1.760297 0.12814,-0.247725 0.39229,-0.554833 0.58706,-0.682465 0.1948,-0.127609 0.35417,-0.282532 0.35417,-0.344228 0,-0.06169 -0.33748,-0.190649 -0.74998,-0.28657 -0.41249,-0.09583 -1.03927,-0.330555 -1.39282,-0.521524 -1.26674,-0.684193 -1.66535,-1.195441 -1.38012,-1.770051 0.14329,-0.288792 0.29387,-0.354924 0.8836,-0.388241 0.6126,-0.0346 2.20192,0.290846 2.94502,0.603072 0.2067,0.08684 0.22614,-0.0079 0.16504,-0.803654 -0.0831,-1.081558 0.10581,-1.64247 0.61871,-1.837485 1.20568,-0.458398 2.43746,1.005064 3.33566,3.963085 0.17167,0.565254 0.38726,1.089795 0.47915,1.165645 0.0918,0.07584 0.90632,0.409285 1.80988,0.740964 3.09746,1.137042 7.73594,3.315109 10.7954,5.069153 4.33909,2.487654 9.42399,6.238771 13.32316,9.828466 1.03626,0.953978 1.4522,1.251813 1.4522,1.039816 0,-0.03097 -0.31142,-0.760754 -0.69203,-1.621769 -0.99729,-2.256009 -1.95898,-3.81358 -3.03926,-4.922482 -1.0279,-1.055134 -1.55429,-1.260063 -1.55429,-0.605125 0,0.207326 -0.0617,0.327349 -0.14271,0.277274 -0.0787,-0.04857 -0.14271,-0.277346 -0.14271,-0.508417 0,-0.569155 0.45062,-0.562312 1.33005,0.02012 1.14511,0.75851 2.29337,2.478223 3.70746,5.552686 0.37773,0.821218 0.7256,1.528343 0.77309,1.571386 0.14025,0.127041 -0.0795,-1.69104 -0.3266,-2.702275 -0.34495,-1.412079 -1.28347,-3.280515 -2.80147,-5.577217 -0.75267,-1.138795 -2.03679,-3.324081 -2.85364,-4.856181 l -1.48514,-2.785601 -0.88021,-0.09782 c -1.03501,-0.11506 -1.97084,-0.5003 -2.79136,-1.149125 -0.92287,-0.729755 -3.8808,-3.396629 -3.93385,-3.546738 -0.12701,-0.359612 1.90189,0.153086 4.31009,1.089107 0.23086,0.08968 0.21766,0.01344 -0.10713,-0.627571 -0.49694,-0.980648 -0.4835,-1.607301 0.0471,-2.201132 0.35865,-0.401331 0.50625,-0.46466 1.05638,-0.453183 1.35676,0.02832 2.64714,1.246454 2.77948,2.623883 0.059,0.613737 -0.002,0.832626 -0.49564,1.746443 l -0.56309,1.044763 2.10483,3.781501 c 1.15766,2.079827 2.17465,3.804782 2.26004,3.833231 0.19268,0.06418 0.19336,0.004 0.008,-0.488666 -0.28528,-0.750296 -0.17016,-2.462647 0.27583,-4.107186 0.46086,-1.698953 0.59952,-1.948259 0.93081,-1.67331 0.43195,0.358467 1.13338,1.626694 1.53018,2.766628 0.60231,1.73032 0.56854,2.694885 -0.17016,4.865879 l -0.58253,1.711743 0.71023,1.51205 c 0.88384,1.881576 1.16372,2.956038 1.26841,4.869107 l 0.0821,1.499959 2.30842,2.357083 c 1.26961,1.296395 3.04102,3.192773 3.93649,4.214168 2.02386,2.308572 2.06433,2.357091 1.96547,2.357091 -0.0447,0 -0.25508,-0.208946 -0.46804,-0.464276 z M 119.51475,32.48063 c 1.39373,-0.943158 2.82983,-2.519791 3.28292,-3.604184 0.31552,-0.75516 0.0926,-0.647909 -0.56716,0.272968 -0.95185,1.328371 -0.93332,0.989693 0.024,-0.440405 0.3894,-0.581666 0.16127,-0.509028 -0.70419,0.224259 -0.6318,0.535279 -0.76535,0.612503 -0.45682,0.264131 0.2398,-0.270769 0.52908,-0.615329 0.64284,-0.765691 0.19658,-0.259844 0.18908,-0.264214 -0.15029,-0.08828 -1.15989,0.601246 -2.45622,2.131425 -3.27886,3.87036 -0.70089,1.481556 -0.61547,1.500434 1.20748,0.266824 z m -6.60697,-4.942444 c 0.57674,-0.290019 0.48267,-0.378049 -0.32141,-0.300783 -0.39286,0.03774 -0.71427,0.04842 -0.71427,0.0237 0,-0.02472 0.2732,-0.11487 0.60712,-0.200364 1.00456,-0.257143 1.07593,-0.298282 0.74998,-0.432304 -0.15709,-0.06464 -0.57497,-0.127079 -0.92854,-0.138814 -0.66261,-0.02198 -0.65678,-0.04039 0.0716,-0.225646 l 0.42855,-0.109022 -0.49997,-0.09895 c -0.44483,-0.08803 -0.45664,-0.101016 -0.10713,-0.117767 0.21606,-0.01041 0.39284,-0.07705 0.39284,-0.148221 0,-0.192269 -1.25671,-0.584842 -1.87217,-0.584842 -1.00528,0 -1.43873,1.118836 -0.7348,1.896666 0.69157,0.764182 1.91417,0.946355 2.92838,0.436345 z m 3.10482,-1.297326 c -0.001,-0.05892 -0.57978,-0.485045 -1.28566,-0.946927 -0.7059,-0.461885 -1.28346,-0.868164 -1.28346,-0.902839 0,-0.03468 0.48614,0.205289 1.08029,0.53328 0.59417,0.327987 1.10943,0.567205 1.14503,0.531603 0.10846,-0.108436 -1.25968,-1.317987 -1.94523,-1.719746 -0.77262,-0.452796 -2.24998,-0.853767 -2.88956,-0.784256 l -0.46187,0.0502 1.07483,1.065784 c 1.43972,1.427578 2.47208,1.951364 4.46074,2.263234 0.0589,0.0093 0.10618,-0.03142 0.10486,-0.09032 z m 22.28739,-0.248399 c 0,-0.0384 -0.13401,-0.558027 -0.29764,-1.154711 -0.16353,-0.596683 -0.27276,-1.109758 -0.24234,-1.14017 0.0303,-0.0304 0.24195,0.50528 0.4701,1.190425 l 0.41479,1.245716 0.10959,-0.714268 c 0.38262,-2.495466 0.3922,-2.522797 0.33786,-0.964261 -0.0282,0.805336 -0.008,1.464249 0.05,1.464249 0.0556,0 0.22622,-0.33749 0.37936,-0.749981 0.41139,-1.10901 0.37993,-3.447043 -0.0615,-4.569539 -0.35993,-0.915233 -1.16111,-2.175241 -1.36297,-2.14346 -0.14082,0.0222 -0.73155,1.943135 -0.9498,3.088666 -0.0854,0.448419 -0.0801,1.027492 0.017,1.623738 0.15615,0.977466 0.835,2.893427 1.02522,2.893427 0.0615,0 0.11186,-0.03142 0.11186,-0.06986 z m -28.75856,-5.79368 c 0.46935,-0.174322 1.75857,-1.02233 1.75897,-1.156972 1.7e-4,-0.05065 -0.24078,-0.03611 -0.53542,0.03231 -0.29463,0.06842 -0.6964,0.120871 -0.89283,0.116536 -0.33668,-0.0074 -0.33257,-0.0159 0.0716,-0.148694 1.83356,-0.602498 2.10097,-0.835114 0.96426,-0.838781 -0.49077,-0.0016 -0.61925,-0.0405 -0.46427,-0.140669 0.11791,-0.07615 0.4232,-0.139457 0.67855,-0.140669 0.53966,-0.0025 0.60233,-0.177672 0.1429,-0.399249 -0.28715,-0.138492 -0.29213,-0.156038 -0.0466,-0.164669 0.26941,-0.0095 0.26928,-0.0159 -0.008,-0.331085 -0.55536,-0.633715 -0.68887,-0.89566 -0.25486,-0.499988 0.23701,0.216068 0.47481,0.392847 0.52845,0.392847 0.1924,0 -0.63553,-1.646594 -1.21809,-2.42254 l -0.5944,-0.791662 0.49253,0.367039 c 0.32379,0.241282 0.73944,0.841666 1.21317,1.752345 0.39633,0.761916 0.86601,1.528867 1.04374,1.704334 0.29919,0.295403 0.28664,0.217804 -0.1694,-1.047801 -0.84945,-2.357645 -1.39346,-3.21672 -2.23785,-3.533859 -0.87347,-0.328064 -1.2473,0.313589 -1.07046,1.837313 0.1164,1.002947 0.15936,0.987918 -1.3992,0.490194 -1.25283,-0.400106 -2.40405,-0.465156 -2.66512,-0.150587 -0.45899,0.55304 1.14282,1.585402 3.13484,2.020404 0.58927,0.128688 1.12674,0.285639 1.19438,0.3488 0.0678,0.06314 -0.25378,0.297347 -0.71426,0.520413 -0.99407,0.48154 -1.31783,0.976929 -1.05428,1.613204 0.27231,0.657413 1.19408,0.908209 2.10053,0.571512 z m 23.47299,-2.332547 c 0,-0.02937 -0.51426,-0.391044 -1.14284,-0.803702 -1.26729,-0.832009 -1.50192,-1.082244 -0.47825,-0.510115 0.36549,0.204296 0.6912,0.344779 0.72377,0.312205 0.11887,-0.118902 -1.02776,-1.137506 -1.95767,-1.739055 -0.52501,-0.339633 -1.3027,-0.749792 -1.72819,-0.911465 -0.76694,-0.291409 -2.13095,-0.545344 -2.13095,-0.396714 0,0.04251 0.80495,0.773988 1.78876,1.625507 2.07432,1.795342 3.23925,2.474493 4.2468,2.475846 0.37321,5.01e-4 0.67857,-0.02313 0.67857,-0.05251 z m -1.50506,-2.839365 c -0.16429,-0.482419 -0.16694,-0.555775 -0.0132,-0.357133 0.29629,0.383656 0.3378,0.311157 0.28626,-0.499986 l -0.0477,-0.749981 0.2472,0.882801 c 0.13608,0.485539 0.29114,0.925945 0.34495,0.978679 0.0536,0.05271 0.16864,-0.183824 0.25518,-0.525665 0.0867,-0.341851 0.22067,-0.750117 0.29807,-0.907255 0.1253,-0.254764 0.13363,-0.247027 0.0767,0.07143 -0.31941,1.778254 -0.23775,2.126437 0.25512,1.087833 0.56387,-1.188275 -0.0466,-2.581491 -1.43978,-3.285348 -0.566,-0.285975 -0.93976,-0.2916 -1.46114,-0.02197 -0.97047,0.50185 -0.72479,1.879236 0.58953,3.305111 0.3187,0.34575 0.63269,0.62864 0.69782,0.62864 0.0649,0 0.0254,-0.273207 -0.0884,-0.607129 z"
       id="path2-4" />
    <path
       style="fill:#000000;stroke-width:1.18828"
       d="m 16.090899,76.638213 c -0.0377,0.75476 -0.11241,3.945313 -0.165861,7.090129 -0.129067,7.602754 0.150359,12.685737 0.958076,17.427528 l 0.254421,1.49379 0.775942,0.36921 c 0.426773,0.20307 1.599322,1.0305 2.605651,1.83874 1.006351,0.80824 1.909259,1.50151 2.00648,1.54059 0.09716,0.0391 0.718088,-0.0999 1.379713,-0.30894 1.693329,-0.53493 3.071539,-0.69348 4.771276,-0.54891 1.823628,0.15513 3.695345,0.57046 3.617879,0.80283 -0.03169,0.0951 -0.841495,0.4429 -1.799619,0.77303 -1.45401,0.50101 -1.994104,0.61103 -3.266789,0.66548 -0.9773,0.0418 -1.894272,-0.0125 -2.553953,-0.15119 -0.566069,-0.11904 -1.029229,-0.16567 -1.029229,-0.10363 0,0.16037 1.069431,1.49253 2.491799,3.104 0.670786,0.75998 1.557271,1.8106 1.969934,2.33474 l 0.750287,0.95298 h 1.059484 c 1.215112,0 1.993063,0.31637 2.62515,1.06757 1.166744,1.38659 0.588809,3.20175 -1.019396,3.20175 -0.48909,0 -0.683948,-0.0987 -1.107528,-0.56118 -0.282712,-0.30864 -0.549162,-0.52601 -0.59214,-0.48306 -0.04302,0.043 -0.122594,0.60421 -0.176953,1.24721 -0.155906,1.84374 -0.503871,1.89536 -1.614614,0.2395 -1.130891,-1.68592 -1.529814,-3.47668 -1.198411,-5.3797 l 0.176953,-1.01642 -2.198956,-2.6271 c -2.18015,-2.60468 -3.022593,-3.43652 -5.022712,-4.95966 -1.521464,-1.15864 -1.827005,-1.28602 -1.136559,-0.47382 1.627474,1.91447 2.948157,3.60391 3.19358,4.08531 0.709392,1.39143 -0.12583,2.83376 -1.047755,1.80957 -0.575346,-0.63909 -0.569425,-0.80308 0.01155,-0.29761 0.459341,0.40019 0.621122,0.46643 0.792247,0.3244 0.35391,-0.2937 0.251138,-1.21728 -0.227843,-2.04709 -0.471508,-0.81697 -3.61642,-4.49804 -3.842923,-4.49804 -0.07495,0 -0.136013,0.13123 -0.136013,0.29161 0,0.61721 1.289016,5.39828 2.161645,8.0177 1.007786,3.02521 3.305443,8.50878 3.752595,8.95592 0.203786,0.20381 0.735807,0.34582 1.873822,0.50017 1.844399,0.25019 2.470772,0.41518 3.143802,0.82812 0.907811,0.557 1.229012,1.43423 0.811077,2.21516 -0.253613,0.4739 -0.78059,0.69043 -1.68026,0.69043 h -0.748785 l 0.612217,1.18168 c 0.413681,0.7985 0.640461,1.46071 0.699331,2.04205 0.08165,0.8059 0.06176,0.87703 -0.314586,1.12359 -0.752186,0.49286 -1.587296,-0.16429 -2.688533,-2.11554 l -0.501555,-0.88868 -0.58099,0.6797 c -1.002719,1.17309 -2.026883,1.32597 -2.522355,0.37649 -0.567065,-1.08667 -0.276697,-2.27327 1.189296,-4.86033 l 0.609119,-1.07495 -1.063024,-2.31075 c -2.931548,-6.37232 -4.895559,-12.9216 -5.882735,-19.616751 -0.325087,-2.204795 -0.696624,-6.3656 -0.707958,-7.928747 -0.0045,-0.712825 -0.06061,-1.570503 -0.12282,-1.905953 l -0.113584,-0.609896 -0.25109,0.472841 c -0.485665,0.914572 -1.476449,3.553239 -1.806673,4.811544 -0.665395,2.53555 -0.273689,5.321982 0.537851,3.826045 0.268623,-0.495119 0.318841,-0.226201 0.06269,0.335902 -0.452611,0.993343 -1.255963,-0.08924 -1.239331,-1.670066 0.01382,-1.292479 0.521472,-3.265105 1.418551,-5.509647 0.424021,-1.06098 0.748391,-1.996844 0.720749,-2.079703 -0.06592,-0.19761 -1.628098,1.86636 -2.224423,2.938842 -0.708559,1.274369 -1.16177,2.607394 -1.684748,4.955469 -0.261498,1.174066 -1.0021414,3.76164 -1.6458629,5.75017 l -1.1704448,3.61549 0.3772965,0.29677 c 0.498756,0.39234 1.1469425,1.60358 1.3550558,2.53219 0.2444974,1.09108 0.4712314,5.91503 0.2867814,6.10249 -0.2158147,0.21938 -0.588368,-0.32769 -1.5835462,-2.32526 -0.4700071,-0.94345 -0.8794311,-1.71535 -0.9098248,-1.71535 -0.03053,0 -0.1686249,0.34105 -0.3069999,0.75788 -0.6158716,1.85423 -2.6035915,2.09739 -3.416589,0.41794 -0.4267503,-0.88157 -0.414489,-1.86462 0.033994,-2.71472 0.4496278,-0.85254 1.0343184,-1.24587 2.3649937,-1.59101 1.0353802,-0.26855 1.0632774,-0.28875 1.2391212,-0.89767 0.09901,-0.34261 0.6896377,-2.24106 1.3126791,-4.21876 0.6230205,-1.9777 1.1327639,-3.675905 1.1327639,-3.773783 0,-0.338624 -0.2303871,-0.167149 -0.6099038,0.4541 -0.5235075,0.856763 -1.3051137,1.460623 -3.3289435,2.571843 -1.2296158,0.67514 -1.7750981,0.90162 -1.8914244,0.78527 -0.2317992,-0.23179 0.1945328,-1.865 0.8233129,-3.15483 0.9208804,-1.888666 2.3893723,-3.126971 4.8762438,-4.111947 l 1.012898,-0.401163 0.415231,-1.172012 c 0.794144,-2.241641 1.549104,-3.478866 3.134178,-5.136397 l 1.020647,-1.067324 0.186662,-4.498041 c 0.102701,-2.473926 0.279334,-5.390036 0.392655,-6.480234 0.167924,-1.614607 0.193376,-1.727708 0.137167,-0.609906 z M 7.8305874,97.233978 c -0.9265472,0.54277 -2.059173,1.751621 -2.6107158,2.786472 -0.4700298,0.88183 -1.0375569,2.72001 -0.8864399,2.87112 0.042568,0.0425 0.8110536,-0.31628 1.7078317,-0.79731 2.018672,-1.0828 2.9891007,-2.01148 3.7848875,-3.62201 0.7242881,-1.465886 0.6507531,-1.85337 -0.1131106,-0.595911 -0.8356651,1.37567 -1.0144938,1.344004 -0.2483153,-0.04397 0.715684,-1.296506 0.696137,-1.300986 -0.7623854,-0.174738 -1.5151255,1.169991 -1.5537299,1.150005 -0.2287688,-0.118354 1.1688946,-1.118921 1.1943634,-1.157504 0.6099038,-0.924814 -0.3354498,0.133553 -0.8992765,0.412332 -1.2529307,0.619497 z m 17.4222596,8.680842 c -1.393363,0.29516 -1.886637,0.70637 -0.606549,0.50564 0.479372,-0.0752 0.947643,-0.10897 1.040585,-0.075 0.09299,0.034 -0.157761,0.11299 -0.557142,0.17559 -0.858749,0.13465 -1.108245,0.38261 -0.388305,0.38595 0.778902,0.003 1.109934,0.29503 0.352059,0.30994 -0.551683,0.0106 -0.574559,0.0261 -0.239525,0.16001 1.099571,0.43937 3.37065,0.28493 5.271235,-0.35847 1.591227,-0.53867 1.660621,-0.5726 1.499628,-0.7336 -0.537989,-0.538 -4.494556,-0.7678 -6.371986,-0.37009 z m 1.012804,0.33165 c -0.110101,0.0441 -0.241583,0.0386 -0.29224,-0.0121 -0.05065,-0.0506 0.03933,-0.0867 0.200086,-0.0801 0.177653,0.007 0.213733,0.0435 0.09206,0.0921 z m -18.1798095,1.90631 c 0.1824987,0.92834 0.1223661,1.45588 -0.067552,0.59119 -0.056669,-0.2583 -0.1660886,-0.4307 -0.2432256,-0.38309 -0.4102341,0.25353 0.2308508,3.57564 0.9724861,5.03906 0.4321634,0.85285 0.9566419,1.54874 1.0770187,1.429 0.04465,-0.0444 0.016278,-1.17028 -0.063842,-2.50191 -0.1723346,-2.87848 -0.5018582,-4.19226 -1.2407887,-4.94806 -0.592994,-0.60653 -0.6764282,-0.45782 -0.4341054,0.77381 z m 0.2995045,1.43295 c -0.007,0.17761 -0.043495,0.21375 -0.092063,0.0921 -0.044177,-0.11003 -0.038631,-0.24158 0.011546,-0.29224 0.05065,-0.0506 0.086745,0.0393 0.080025,0.20013 z M 5.123667,109.0823 c -0.8900229,0.50409 -1.3005579,1.19794 -1.3005579,2.19808 0,1.37161 0.6250553,2.18077 1.684585,2.18077 0.6290565,0 1.0684825,-0.38058 1.425237,-1.2344 0.3131059,-0.74934 0.4648001,-2.02619 0.2800036,-2.35643 -0.1367132,-0.24416 -0.1757984,-0.22687 -0.3924233,0.17317 -0.1991606,0.36777 -0.2427619,0.39181 -0.2529866,0.13945 -0.00927,-0.24794 -0.1290664,-0.17666 -0.6366426,0.38119 -0.5078261,0.55811 -0.5791164,0.6008 -0.382176,0.2287 0.1332305,-0.25158 0.3821514,-0.66327 0.5533012,-0.91486 0.4809225,-0.70695 0.3824523,-0.74814 -0.5344722,-0.22354 -1.1729205,0.67107 -1.1946416,0.47936 -0.032612,-0.28676 0.7857476,-0.518 0.8883818,-0.6303 0.5752059,-0.62938 -0.2095687,6.2e-4 -0.6535978,0.15542 -0.9865738,0.34401 z m 22.632521,5.45739 c 0.412015,1.88774 0.369292,2.02052 -0.143641,0.44623 l -0.422172,-1.29604 -0.114492,0.58229 c -0.143413,0.72977 0.10942,2.02757 0.606781,3.11385 0.393442,0.8594 1.228876,2.0217 1.453157,2.0217 0.242323,0 0.343823,-1.70108 0.167016,-2.79914 -0.09645,-0.59896 -0.375654,-1.50068 -0.620498,-2.00385 -0.432371,-0.88862 -1.035334,-1.68958 -1.170284,-1.55462 -0.03655,0.0366 0.0731,0.7069 0.244036,1.48958 z m 3.283862,0.23323 0.609904,0.53793 -0.815657,-0.40143 c -0.44861,-0.22079 -0.852761,-0.36433 -0.89812,-0.31897 -0.04533,0.0454 0.167243,0.35893 0.472596,0.69683 0.632619,0.70024 0.744989,0.99758 0.174417,0.46159 -0.46538,-0.43721 -0.695859,-0.28791 -0.291917,0.1891 l 0.291317,0.34401 -0.344011,-0.29131 c -0.501879,-0.42501 -0.576247,-0.20233 -0.195227,0.58474 0.451291,0.93228 1.149001,1.51128 1.668831,1.38493 1.149744,-0.27947 1.49588,-1.56347 0.70206,-2.60423 -0.47891,-0.62788 -1.233201,-1.1338 -1.679172,-1.12626 -0.249379,0.005 -0.193842,0.10313 0.304939,0.54309 z m -5.565374,6.98227 c 0,0.0331 0.345674,0.28218 0.768192,0.55329 0.422493,0.27112 0.740988,0.52011 0.707772,0.55333 -0.03331,0.0333 -0.498966,-0.14707 -1.035011,-0.40068 -1.279094,-0.60513 -1.543555,-0.5933 -0.928283,0.0414 0.641825,0.6622 0.622023,0.85594 -0.03608,0.35391 -0.657694,-0.50163 -0.754729,-0.50031 -0.627022,0.008 0.08976,0.35735 0.07287,0.38334 -0.136012,0.21004 -0.20772,-0.17243 -0.240612,-0.13174 -0.256343,0.31643 l -0.01855,0.51422 -0.110574,-0.45742 c -0.110328,-0.45715 -0.110801,-0.45693 -0.524202,0.4136 -0.227612,0.47906 -0.506299,1.33674 -0.619481,1.90594 l -0.205869,1.03494 -0.01382,-0.80718 c -0.01155,-0.57837 0.139704,-1.21819 0.528851,-2.25737 0.298742,-0.79762 0.5168,-1.60085 0.484577,-1.78494 -0.09276,-0.53038 -1.822053,3.11494 -1.909559,4.02552 -0.196385,2.0447 0.943781,2.37354 2.336541,0.67384 0.310308,-0.37867 0.623552,-0.68849 0.696091,-0.68849 0.07263,0 0.332304,0.39452 0.577218,0.87674 0.958401,1.88705 1.858625,2.75787 2.392706,2.31462 0.193378,-0.1605 0.231082,-0.37179 0.165388,-0.92686 -0.09553,-0.80744 -0.471879,-1.6183 -1.356907,-2.92429 -0.33117,-0.48867 -0.564497,-0.92609 -0.518533,-0.97206 0.04603,-0.046 0.362258,0.028 0.702891,0.16429 0.340632,0.13628 0.892383,0.24782 1.226121,0.24782 1.489032,0 1.664785,-1.65156 0.254514,-2.3916 -0.69838,-0.36648 -2.544723,-0.80007 -2.544723,-0.5976 z m 3.740612,8.2115 c 0.732292,0.87807 7.403527,7.59433 9.757793,9.82359 2.629314,2.48974 5.373614,4.79335 8.291653,6.96019 l 2.04444,1.51812 0.711773,-0.25596 c 0.391498,-0.14082 1.529929,-0.32027 2.529873,-0.3989 2.250123,-0.17697 3.158977,-0.29243 3.36156,-0.42732 0.08604,-0.0573 0.460244,-0.6787 0.83134,-1.38076 0.887734,-1.67951 2.080269,-2.95402 3.922749,-4.1924 1.37319,-0.92294 2.012356,-1.20659 2.012356,-0.893 0,0.0651 -0.374705,0.88001 -0.832659,1.8109 -0.960922,1.95323 -1.880716,3.05322 -3.357789,4.01556 -0.546546,0.35611 -0.993746,0.69903 -0.993746,0.76208 0,0.13495 1.903756,0.39065 4.57429,0.61433 1.048264,0.0878 2.304436,0.2358 2.791489,0.3289 l 0.885512,0.16922 0.623066,-0.64842 c 0.758776,-0.78966 1.393153,-1.07194 2.408873,-1.07194 1.5015,0 2.439614,0.72975 2.439614,1.89776 0,1.03757 -0.707772,1.56765 -1.906368,1.42772 -0.293281,-0.0343 -0.533246,-0.035 -0.533246,-0.002 0,0.0331 0.377365,0.49015 0.838626,1.01552 1.309395,1.49142 1.138222,1.74276 -0.885606,1.3005 -2.091279,-0.457 -3.591115,-1.38816 -4.785802,-2.97121 l -0.690423,-0.91486 -3.528036,-0.40846 c -3.597916,-0.41656 -4.595962,-0.43126 -7.486754,-0.11035 -2.127272,0.23618 -1.995239,0.32802 0.832982,0.57945 2.536257,0.22548 3.663539,0.48121 4.414104,1.00134 1.010054,0.69998 0.981625,1.62229 -0.04904,1.59258 l -0.476874,-0.0132 0.495543,-0.14309 c 0.629101,-0.18171 0.650128,-0.5871 0.05644,-1.08669 -0.593989,-0.4998 -1.880391,-0.8302 -3.982658,-1.02288 -0.964391,-0.0884 -2.12297,-0.20538 -2.574563,-0.26 -0.667038,-0.0806 -0.8077,-0.0591 -0.749755,0.1147 0.07934,0.23831 3.554521,2.38094 6.154365,3.7946 2.011016,1.09348 5.392792,2.65689 7.919519,3.66122 3.215692,1.27815 2.73861,1.25659 4.211334,0.19037 2.343042,-1.6963 3.450407,-2.05693 4.55775,-1.48429 0.628755,0.32513 0.887711,1.21707 0.545484,1.87885 -0.136713,0.26442 -0.418701,0.5922 -0.626606,0.72842 -0.20795,0.13628 -0.378012,0.3016 -0.378012,0.36743 0,0.0659 0.360202,0.20356 0.800483,0.30588 0.440282,0.10221 1.109264,0.35283 1.486651,0.55666 1.352048,0.73028 1.777527,1.27596 1.473072,1.88928 -0.152896,0.30824 -0.313685,0.37882 -0.94311,0.4144 -0.653876,0.0369 -2.350259,-0.31045 -3.143409,-0.6437 -0.220674,-0.0927 -0.241352,0.009 -0.176026,0.85777 0.0886,1.15443 -0.112883,1.7531 -0.660375,1.96127 -1.286912,0.48927 -2.60165,-1.07277 -3.560374,-4.23003 -0.183199,-0.60333 -0.413334,-1.16321 -0.511411,-1.24416 -0.09808,-0.081 -0.967374,-0.43686 -1.931789,-0.79088 -3.306113,-1.21363 -8.25705,-3.53842 -11.522591,-5.41061 -4.631354,-2.65523 -10.058772,-6.65902 -14.220605,-10.49051 -1.106048,-1.01824 -1.550007,-1.33614 -1.550007,-1.10987 0,0.0331 0.332397,0.81201 0.738652,1.73102 1.064457,2.40797 2.090909,4.07047 3.243982,5.25406 1.097142,1.1262 1.65898,1.34495 1.65898,0.64588 0,-0.22128 0.06592,-0.3494 0.152442,-0.29595 0.08396,0.0519 0.152442,0.29603 0.152442,0.54267 0,0.6075 -0.48097,0.60019 -1.419639,-0.0216 -1.22226,-0.8096 -2.44785,-2.64515 -3.957191,-5.9267 -0.40318,-0.87654 -0.774484,-1.63129 -0.825187,-1.67724 -0.14966,-0.13552 0.08489,1.80496 0.348589,2.8843 0.368204,1.50719 1.369952,3.50149 2.990185,5.9529 0.803375,1.2155 2.173999,3.548 3.045864,5.18329 l 1.58519,2.97324 0.939478,0.10429 c 1.104753,0.12284 2.103609,0.53399 2.979408,1.22651 0.985001,0.77894 4.142195,3.62544 4.19882,3.78564 0.135559,0.38385 -2.030004,-0.16334 -4.600427,-1.16245 -0.246256,-0.0958 -0.232354,-0.0132 0.114265,0.66983 0.530401,1.04673 0.51606,1.71559 -0.05042,2.34941 -0.382823,0.42837 -0.540369,0.49596 -1.127536,0.48369 -1.44816,-0.0303 -2.825444,-1.33039 -2.966707,-2.80062 -0.06292,-0.65506 0.0023,-0.8887 0.529036,-1.86406 l 0.600998,-1.11513 -2.246606,-4.03625 c -1.235629,-2.21991 -2.321137,-4.06106 -2.412252,-4.09142 -0.205637,-0.0685 -0.20633,-0.004 -0.007,0.52159 0.304479,0.80082 0.181818,2.62851 -0.294392,4.38383 -0.49191,1.8134 -0.639928,2.07949 -0.993537,1.78602 -0.46103,-0.38262 -1.209699,-1.73626 -1.633233,-2.95298 -0.642889,-1.84688 -0.606851,-2.87641 0.181817,-5.19364 l 0.621772,-1.82705 -0.758084,-1.61391 c -0.943364,-2.0083 -1.242106,-3.15515 -1.353831,-5.19707 l -0.08767,-1.601 -2.463907,-2.51586 c -1.355148,-1.38371 -3.24588,-3.40784 -4.201666,-4.49804 -2.160189,-2.46408 -2.203374,-2.51586 -2.097872,-2.51586 0.04764,0 0.272279,0.223 0.499566,0.49556 z m 31.252645,12.01822 c -1.487622,1.00669 -3.020442,2.68952 -3.504072,3.84697 -0.336769,0.80601 -0.09876,0.69153 0.605392,-0.29137 1.015951,-1.41784 0.996174,-1.05636 -0.02567,0.47008 -0.415647,0.62084 -0.172088,0.54332 0.751607,-0.23935 0.67437,-0.57135 0.816928,-0.65376 0.487607,-0.28193 -0.255971,0.28901 -0.564727,0.65677 -0.686143,0.81727 -0.209802,0.27735 -0.201938,0.282 0.160523,0.0943 1.238013,-0.64174 2.621658,-2.27499 3.499723,-4.13106 0.748091,-1.58135 0.656906,-1.60151 -1.288831,-0.2848 z m 7.052001,5.27537 c -0.615596,0.30956 -0.515181,0.40352 0.34306,0.32105 0.419325,-0.0403 0.762386,-0.0517 0.762386,-0.0254 0,0.0263 -0.291595,0.12265 -0.648026,0.21384 -1.072205,0.27447 -1.1484,0.31838 -0.800481,0.46143 0.167698,0.0689 0.613697,0.13571 0.991085,0.1482 0.70724,0.0235 0.701016,0.0432 -0.07634,0.24086 l -0.45742,0.1164 0.533639,0.10562 c 0.474794,0.0939 0.487422,0.10788 0.114265,0.12567 -0.23062,0.0114 -0.419302,0.0822 -0.419302,0.15824 0,0.20521 1.341362,0.62423 1.998293,0.62423 1.072991,0 1.535641,-1.1942 0.78429,-2.02443 -0.738168,-0.81566 -2.043121,-1.0101 -3.125644,-0.46573 z m -3.313957,1.38472 c 0.0012,0.0628 0.618834,0.5177 1.372267,1.01071 0.753457,0.49298 1.369906,0.92663 1.369906,0.96365 0,0.0369 -0.518882,-0.21912 -1.153051,-0.56921 -0.634191,-0.35008 -1.184161,-0.60541 -1.222166,-0.5674 -0.115646,0.11564 1.344531,1.40676 2.076267,1.83558 0.824679,0.4833 2.401541,0.91129 3.084192,0.83709 l 0.492998,-0.0536 -1.147243,-1.13757 c -1.536684,-1.52375 -2.63859,-2.08281 -4.761214,-2.41569 -0.06291,-0.009 -0.113338,0.0335 -0.111956,0.0963 z m -23.788647,0.26511 c 0,0.0411 0.142959,0.59563 0.317687,1.2325 0.174643,0.63688 0.291131,1.18452 0.258678,1.21699 -0.03239,0.0324 -0.258262,-0.53932 -0.501766,-1.27063 l -0.442732,-1.32963 -0.117048,0.7624 c -0.408406,2.66355 -0.41863,2.69271 -0.360618,1.0292 0.03008,-0.85958 0.007,-1.56288 -0.05343,-1.56288 -0.05945,0 -0.241584,0.36023 -0.404913,0.8005 -0.439103,1.1837 -0.405516,3.67923 0.0657,4.87734 0.384165,0.97689 1.239331,2.32176 1.454775,2.28785 0.15036,-0.0237 0.780845,-2.07402 1.013776,-3.29672 0.09114,-0.47864 0.08536,-1.09671 -0.01628,-1.73311 -0.166543,-1.04332 -0.891274,-3.08834 -1.094275,-3.08834 -0.0657,0 -0.119584,0.0335 -0.119584,0.0746 z m 30.695707,6.18395 c -0.500956,0.18606 -1.877013,1.09119 -1.877454,1.23491 -1.61e-4,0.0541 0.257012,0.0386 0.571482,-0.0344 0.314494,-0.0731 0.743326,-0.12909 0.952988,-0.12454 0.359345,0.008 0.354973,0.017 -0.07634,0.15861 -1.957073,0.64308 -2.242489,0.89137 -1.029229,0.89527 0.523833,0.002 0.660978,0.0433 0.495567,0.15009 -0.12583,0.0812 -0.45171,0.14877 -0.724266,0.1501 -0.576016,0.002 -0.642888,0.18967 -0.152441,0.42615 0.30649,0.14783 0.311788,0.16656 0.04974,0.17584 -0.287569,0.009 -0.287408,0.017 0.007,0.35337 0.592763,0.67642 0.735253,0.95599 0.272001,0.53366 -0.252964,-0.23061 -0.506785,-0.4193 -0.564035,-0.4193 -0.205405,0 0.67835,1.75752 1.300166,2.58573 l 0.634423,0.84497 -0.525705,-0.39176 c -0.345606,-0.25752 -0.789264,-0.89833 -1.294891,-1.87037 -0.423027,-0.81324 -0.924352,-1.63184 -1.114052,-1.81912 -0.319328,-0.31532 -0.305935,-0.23249 0.180662,1.11837 0.906677,2.51644 1.487344,3.4334 2.38861,3.7719 0.932307,0.35016 1.331322,-0.33473 1.142572,-1.96107 -0.124221,-1.07052 -0.170007,-1.05447 1.493427,-0.52324 1.337222,0.42708 2.566003,0.49649 2.844644,0.1607 0.489921,-0.59029 -1.219785,-1.69219 -3.345993,-2.15649 -0.628964,-0.13741 -1.202642,-0.30488 -1.274836,-0.3723 -0.07217,-0.0674 0.270868,-0.31737 0.762386,-0.55548 1.061032,-0.51394 1.406591,-1.04272 1.125269,-1.72185 -0.290645,-0.7017 -1.27449,-0.96939 -2.242003,-0.61002 z m -25.054093,2.48967 c 0,0.0314 0.548907,0.41739 1.219808,0.85783 1.352675,0.88806 1.603093,1.15514 0.510463,0.54449 -0.390111,-0.21812 -0.737752,-0.36799 -0.772518,-0.33324 -0.126984,0.127 1.09698,1.21412 2.089522,1.8562 0.56038,0.36252 1.390448,0.80029 1.844607,0.97285 0.818596,0.31104 2.274481,0.58208 2.274481,0.42345 0,-0.0454 -0.859168,-0.82613 -1.90926,-1.73501 -2.214015,-1.91627 -3.457416,-2.64118 -4.532837,-2.64262 -0.398344,-5.3e-4 -0.724266,0.0248 -0.724266,0.056 z m 1.606426,3.03063 c 0.175344,0.5149 0.178335,0.59319 0.01382,0.38118 -0.316251,-0.4095 -0.360547,-0.33212 -0.30554,0.53366 l 0.0509,0.8005 -0.263836,-0.94225 c -0.145041,-0.51825 -0.31077,-0.98834 -0.368181,-1.04461 -0.05737,-0.0562 -0.179962,0.19615 -0.272372,0.56107 -0.09252,0.36487 -0.235592,0.80065 -0.318148,0.96837 -0.133931,0.27193 -0.142713,0.26368 -0.08165,-0.0763 0.340908,-1.89805 0.253749,-2.26967 -0.272302,-1.16111 -0.601854,1.26834 0.04972,2.75537 1.536752,3.50666 0.604144,0.30523 1.003067,0.31123 1.559559,0.0233 1.035844,-0.53565 0.773604,-2.00584 -0.62924,-3.52774 -0.34017,-0.36905 -0.675319,-0.671 -0.744806,-0.671 -0.06939,0 -0.02707,0.29162 0.09437,0.64804 z"
       id="path2-4-1" />
    <path
       style="fill:#000000;stroke-width:1.29846"
       d="m 69.61516,114.72622 c -2.66969,-0.67904 -4.72408,-2.38776 -5.431497,-4.51761 -0.483625,-1.45606 -0.348326,-4.57912 0.272562,-6.2913 0.548834,-1.51347 1.739745,-3.39369 3.009044,-4.750671 l 0.97042,-1.037457 -1.13044,-0.149963 c -5.025078,-0.666601 -9.186885,-4.385662 -10.159954,-9.07911 -0.322318,-1.554677 -0.331826,-5.020515 -0.01897,-6.97245 1.164451,-7.268592 7.707913,-16.248233 15.283471,-20.973636 3.573214,-2.228852 8.553379,-4.268417 12.638249,-5.175819 2.68333,-0.59607 8.790071,-0.547481 10.915021,0.08684 3.012762,0.899345 4.975544,2.351619 6.091354,4.507033 0.48027,0.92775 0.58076,1.446422 0.65429,3.377067 0.0731,1.918444 0.0114,2.505398 -0.38535,3.693005 -0.63272,1.891908 -1.29409,2.983539 -2.779689,4.58817 -2.102596,2.27105 -3.96877,3.44741 -7.435488,4.687008 -0.776613,0.277697 -1.167617,0.451934 -0.868923,0.387196 0.298695,-0.06475 2.791462,-0.170593 5.539504,-0.235229 4.770956,-0.112202 5.047266,-0.142164 6.123236,-0.663838 1.22669,-0.594745 2.02308,-0.53779 2.02308,0.144682 0,0.438538 -0.092,0.417881 3.91024,0.879149 5.45844,0.629127 10.61966,2.441888 13.14972,4.618554 0.4817,0.414442 1.15185,1.26065 1.48921,1.880467 0.54719,1.005422 0.60392,1.294921 0.52594,2.684772 -0.31494,5.613172 -7.6849,10.791342 -17.39558,12.222225 -3.38851,0.499304 -7.624807,0.331479 -10.092761,-0.399835 l -1.787567,-0.529695 -2.116679,3.061665 c -1.164172,1.68392 -2.98437,4.21562 -4.044858,5.626 -3.322718,4.41895 -6.644869,6.78933 -11.348534,8.09727 -1.692769,0.4707 -6.133149,0.60832 -7.598891,0.2355 z m 4.510678,-1.01633 c 4.218043,-0.48331 7.199688,-2.0024 10.27033,-5.23255 2.153341,-2.2652 3.122882,-3.71638 6.316099,-9.453969 1.388292,-2.494463 3.199292,-5.718059 4.024454,-7.163551 1.537706,-2.693731 4.659831,-9.201641 5.953259,-12.409297 l 0.72513,-1.798296 h -1.79457 c -2.446244,0 -7.982758,0.550731 -10.849986,1.079277 -8.874885,1.636001 -15.122913,4.705158 -15.126717,7.430551 -0.0012,0.837208 0.933528,1.824905 2.104603,2.22393 2.441712,0.831973 7.166862,-0.04113 9.833005,-1.816898 1.242096,-0.827294 1.413882,-0.661555 0.317262,0.306103 -3.334718,2.942606 -10.020853,4.165901 -13.054011,2.388359 -2.41631,-1.416054 -2.107495,-4.408315 0.687823,-6.664812 2.598485,-2.0976 5.883698,-3.423001 11.161038,-4.502863 l 2.904194,-0.594265 -1.664577,-0.125886 c -2.744087,-0.207534 -5.466141,-1.754625 -6.437594,-3.658819 -0.603597,-1.183166 -0.552304,-2.835091 0.133817,-4.309129 0.732266,-1.573101 3.554239,-4.359783 4.40007,-4.345006 l 0.583913,0.01022 -0.760317,0.57988 c -3.417942,2.606778 -4.637496,5.85117 -3.03237,8.066997 1.524854,2.104977 3.922397,2.863236 7.407948,2.342848 4.090247,-0.610669 8.087824,-3.146834 10.393266,-6.593747 1.413203,-2.112924 1.837003,-3.435618 1.833463,-5.722183 -0.002,-1.604617 -0.0909,-2.036584 -0.667644,-3.269475 -1.544652,-3.300858 -5.382255,-4.710007 -11.231658,-4.124219 -8.827264,0.884001 -17.560355,6.466015 -23.806416,15.216567 -2.501399,3.50438 -3.79215,6.14868 -4.592885,9.409196 -0.510129,2.077185 -0.547823,5.203135 -0.08427,6.983058 1.064351,4.086326 4.510429,7.139596 9.135674,8.094302 1.728968,0.356882 1.773688,0.355135 2.859046,-0.111766 2.482921,-1.068122 6.140684,-1.485562 7.836643,-0.894356 0.832089,0.290073 1.480393,0.100732 4.50472,-1.315659 2.961771,-1.387102 5.073377,-2.856331 7.828801,-5.447165 1.274973,-1.198833 2.427297,-2.142373 2.560698,-2.096756 0.520941,0.178126 0.0441,1.185735 -1.132355,2.392246 -1.994085,2.045223 -6.115373,4.718838 -10.140811,6.578707 l -1.67124,0.772156 0.446216,0.474959 c 0.608707,0.647941 1.118632,1.932043 1.118632,2.816945 0,1.010036 -1.08091,3.054586 -2.405133,4.549316 -0.608632,0.687 -1.178424,1.2491 -1.266172,1.2491 -0.08782,0 0.165426,-0.65985 0.562411,-1.46634 0.846872,-1.72007 1.158967,-3.18267 0.937534,-4.393659 -0.176782,-0.966923 -1.048355,-2.391169 -1.464608,-2.393469 -0.147823,-8.16e-4 -1.223188,0.248289 -2.389593,0.553565 -1.166415,0.305272 -3.239176,0.64791 -4.606138,0.761413 -2.797147,0.232257 -2.806261,0.237163 -4.493992,2.41914 -1.92584,2.48983 -2.817103,5.15153 -2.6388,7.88064 0.211397,3.23545 1.933735,4.83635 5.816542,5.40646 0.2987,0.0439 0.59197,0.0923 0.651712,0.10755 0.05972,0.0153 0.961304,-0.0699 2.003464,-0.18931 z M 104.73802,97.519554 c 3.96549,-0.732715 9.36175,-2.963116 12.13486,-5.01563 2.82309,-2.089475 4.50992,-4.296735 4.89057,-6.399228 0.56555,-3.123728 -2.83637,-5.780236 -9.29555,-7.258766 -1.72584,-0.395051 -5.98172,-0.978297 -7.0947,-0.972288 l -0.77413,0.0042 -0.72695,2.331104 c -1.26783,4.065587 -3.1401,7.854154 -6.803704,13.767359 -0.936021,1.510757 -1.701845,2.808446 -1.701845,2.883745 0,0.201983 1.057156,0.578226 2.172344,0.773143 1.680097,0.293646 5.304505,0.236446 7.199105,-0.113603 z m -27.727852,-1.523405 0.868949,-0.30495 -1.520649,0.08915 c -0.836354,0.04904 -1.765038,0.187572 -2.063738,0.307873 -0.894433,0.360233 1.674836,0.273121 2.715438,-0.09206 z"
       id="path2-5" />
  </g>
</svg>
