<?xml version="1.0" encoding="UTF-8" standalone="no"?>
<!-- Created with Inkscape (http://www.inkscape.org/) -->

<svg
   width="512"
   height="512"
   viewBox="0 0 512 512"
   version="1.1"
   id="svg1"
   xml:space="preserve"
   sodipodi:docname="mono-telegram.svg"
   inkscape:version="1.4.2 (ebf0e940d0, 2025-05-08)"
   xmlns:inkscape="http://www.inkscape.org/namespaces/inkscape"
   xmlns:sodipodi="http://sodipodi.sourceforge.net/DTD/sodipodi-0.dtd"
   xmlns="http://www.w3.org/2000/svg"
   xmlns:svg="http://www.w3.org/2000/svg"><sodipodi:namedview
     id="namedview1"
     pagecolor="#ffffff"
     bordercolor="#000000"
     borderopacity="0.25"
     inkscape:showpageshadow="2"
     inkscape:pageopacity="0.0"
     inkscape:pagecheckerboard="0"
     inkscape:deskcolor="#d1d1d1"
     inkscape:document-units="px"
     inkscape:zoom="0.74074074"
     inkscape:cx="619.65"
     inkscape:cy="540"
     inkscape:window-width="1920"
     inkscape:window-height="1011"
     inkscape:window-x="0"
     inkscape:window-y="0"
     inkscape:window-maximized="1"
     inkscape:current-layer="layer1" /><defs
     id="defs1" /><g
     inkscape:label="Layer 1"
     inkscape:groupmode="layer"
     id="layer1"><path
       style="fill:#000000;stroke-width:1.07872"
       d="m 243.27221,505.11251 c -14.1904,-0.6528 -33.6832,-3.56633 -48.3877,-7.23233 C 127.96927,481.19735 69.61736,436.17994 36.28095,375.52053 -4.51899,301.28034 -4.51899,209.3279 36.28095,135.08771 48.75151,112.39607 66.99299,89.11663 85.98249,71.65947 125.50123,35.32967 173.51051,13.33445 227.62801,6.76522 241.47941,5.083827 269.70911,5.077149 283.65591,6.75192 337.8883,13.26448 385.6775,35.23 425.7681,72.0714 c 13.2908,12.21361 25.7926,26.7964 36.7157,42.82725 57.2735,84.05505 57.6226,195.01607 0.8791,279.47182 -49.1991,73.22666 -131.8273,114.80236 -220.09068,110.742 z m 32.4353,-46.12827 c 38.49369,-3.80287 74.87109,-18.44322 106.54289,-42.87902 8.8886,-6.85775 27.335,-25.30414 34.1926,-34.19265 16.7571,-21.71925 28.7065,-45.15702 36.0756,-70.75899 11.7901,-40.96226 9.9468,-86.5524 -5.1612,-127.64748 -6.3787,-17.35072 -18.4467,-38.72075 -30.9459,-54.79869 -6.8827,-8.85349 -20.1413,-22.51977 -29.4314,-30.33654 -16.0106,-13.4712 -40.5227,-27.79074 -59.5401,-34.78221 -46.59009,-17.12812 -97.00589,-17.12812 -143.59609,0 -17.3507,6.37872 -38.7207,18.44678 -54.79862,30.94585 -8.8535,6.88275 -22.5198,20.14134 -30.33655,29.43153 -13.4712,16.01048 -27.79075,40.52261 -34.78222,59.54006 -17.12811,46.59012 -17.12811,97.00593 0,143.59604 6.35054,17.27406 18.30091,38.46179 30.91436,54.81043 6.85774,8.88851 25.30413,27.3349 34.19262,34.19265 21.72917,16.76464 45.15511,28.70589 70.78841,36.08392 9.6601,2.78045 25.0297,5.77204 34.7187,6.75776 9.0586,0.92159 32.0057,0.9424 41.1669,0.0373 z m 42.92469,-80.1026 c -5.8153,-1.11052 -13.15929,-4.94772 -24.93419,-13.02799 -6.0826,-4.17407 -24.2531,-16.42997 -40.3787,-27.23535 -26.0355,-17.44566 -29.5537,-20.02986 -31.4114,-23.07205 -1.1506,-1.88426 -2.2588,-4.90613 -2.4627,-6.71527 -0.7744,-6.87011 -0.2879,-7.43106 42.9809,-49.56786 21.7561,-21.18691 40.0989,-39.39076 40.762,-40.45301 1.514,-2.42572 1.5358,-4.54681 0.061,-6.02065 -2.3829,-2.38291 -4.7235,-1.36705 -17.7768,7.71541 -7.0025,4.87235 -32.378,22.00435 -56.39,38.07113 -50.4291,33.74294 -48.5217,32.75676 -63.3042,32.73058 -9.5266,-0.0169 -7.7898,0.37907 -35.60751,-8.1183 -21.24545,-6.48979 -25.05523,-8.17531 -27.00624,-11.94812 -3.00945,-5.81965 0.60596,-11.25916 10.95175,-16.47724 3.92951,-1.98193 151.6889,-64.54546 192.4594,-81.49019 36.43819,-15.14417 37.53419,-15.51722 46.93239,-15.97451 6.6602,-0.32406 7.5504,-0.20668 10.5124,1.38614 4.5456,2.44447 6.587,6.48789 6.587,13.04711 0,12.8268 -21.3234,153.02486 -27.2087,178.8928 -2.0353,8.94596 -5.3655,17.94703 -8.4251,22.77134 -3.7848,5.96793 -7.4231,7.1893 -16.3423,5.48603 z"
       id="path1" /></g></svg>
