<?xml version="1.0" encoding="UTF-8" standalone="no"?>
<!-- Created with Inkscape (http://www.inkscape.org/) -->

<svg
   width="512"
   height="512"
   viewBox="0 0 512 512"
   version="1.1"
   id="svg1"
   xml:space="preserve"
   inkscape:version="1.4.2 (ebf0e940d0, 2025-05-08)"
   sodipodi:docname="mono-whatsapp.svg"
   xmlns:inkscape="http://www.inkscape.org/namespaces/inkscape"
   xmlns:sodipodi="http://sodipodi.sourceforge.net/DTD/sodipodi-0.dtd"
   xmlns="http://www.w3.org/2000/svg"
   xmlns:svg="http://www.w3.org/2000/svg"><sodipodi:namedview
     id="namedview1"
     pagecolor="#ffffff"
     bordercolor="#000000"
     borderopacity="0.25"
     inkscape:showpageshadow="2"
     inkscape:pageopacity="0.0"
     inkscape:pagecheckerboard="0"
     inkscape:deskcolor="#d1d1d1"
     inkscape:document-units="px"
     inkscape:zoom="0.74074074"
     inkscape:cx="619.65"
     inkscape:cy="540"
     inkscape:window-width="1920"
     inkscape:window-height="1011"
     inkscape:window-x="0"
     inkscape:window-y="0"
     inkscape:window-maximized="1"
     inkscape:current-layer="layer1" /><defs
     id="defs1" /><g
     inkscape:label="Layer 1"
     inkscape:groupmode="layer"
     id="layer1"><path
       style="fill:#000000;stroke-width:0.781928"
       d="m 9.73867,501.90485 c 0.21377,-0.97311 7.70808,-28.88734 16.65424,-62.03162 l 16.26553,-60.26227 -4.97071,-9.61969 C 6.472867,309.5829 1.117404,240.59762 22.67204,176.5704 47.7822,101.98167 108.33665,42.80748 183.51522,19.39356 231.58132,4.42363 284.15945,4.470321 331.96658,19.52535 c 15.49197,4.87869 36.48511,14.19094 50.34496,22.3323 32.67008,19.19066 61.84579,47.07832 82.50918,78.86623 22.3842,34.43515 35.30105,71.95007 39.09941,113.55816 0.84068,9.20915 0.83896,33.65939 0,42.83963 -6.44534,70.27181 -41.53986,133.68215 -97.39915,175.98485 -74.55558,56.46151 -174.33431,66.0814 -258.19928,24.89352 l -9.61173,-4.72057 -62.68022,14.81189 c -34.47409,8.14653 -63.57936,14.98535 -64.67828,15.19734 -1.963512,0.37872 -1.991505,0.35467 -1.60967,-1.38385 z m 275.53961,-50.04032 c 36.47815,-5.68662 68.11644,-19.51945 96.37053,-42.13483 8.38161,-6.70895 22.94158,-21.26556 29.68057,-29.67375 24.62085,-30.71957 39.70955,-68.03667 43.184,-106.80174 0.882,-9.84108 0.74727,-28.10668 -0.2787,-37.78218 -4.97416,-46.90747 -25.04332,-88.52998 -58.40141,-121.12195 -31.38287,-30.6621 -67.9001,-48.48326 -112.95376,-55.12376 -5.69024,-0.83869 -10.94544,-1.04735 -25.88229,-1.02755 -20.31515,0.0269 -27.14967,0.6944 -42.67464,4.16806 -75.30496,16.84914 -134.49041,76.42479 -150.69197,151.68531 -2.82957,13.14456 -3.68005,20.94261 -4.00664,36.73821 -0.44077,21.32334 0.84161,33.66379 5.45689,52.51113 4.94882,20.20962 11.06811,34.77523 24.19628,57.59457 l 6.57305,11.42493 -8.5893,31.83228 c -4.7241,17.50772 -8.50667,31.93151 -8.40571,32.05277 0.10095,0.12132 15.25679,-3.32617 33.67944,-7.66101 l 33.49592,-7.88156 8.9249,4.93179 c 28.79149,15.90962 52.42002,23.83247 80.6269,27.03487 11.1949,1.27102 39.42103,0.83618 49.69594,-0.76559 z m 26.16101,-78.57294 c -16.8577,-3.12181 -43.71982,-12.29713 -61.2846,-20.93318 -18.30861,-9.00174 -34.92424,-21.08897 -52.28659,-38.03644 -15.17791,-14.8153 -25.31159,-26.96823 -39.83385,-47.77112 -14.88727,-21.32583 -21.51026,-35.05317 -25.19241,-52.2154 -1.4565,-6.78888 -1.47469,-21.49228 -0.0353,-28.28423 2.86019,-13.49252 7.6762,-22.78789 17.55261,-33.87861 8.28999,-9.30919 13.57242,-11.42608 26.86891,-10.76725 12.04362,0.59674 13.73559,1.67095 18.42604,11.69967 1.29074,2.75965 6.38352,14.85179 11.3174,26.87138 6.96358,16.96453 8.97054,22.44833 8.97054,24.51151 0,4.87854 -5.24798,13.30262 -14.64725,23.51187 -4.13778,4.49439 -6.17872,7.63225 -6.17182,9.48899 0.0211,5.56696 15.6191,27.51621 29.44649,41.43584 13.76304,13.85483 26.14152,22.71664 44.02974,31.52095 16.90902,8.32246 20.01327,9.11546 23.85486,6.09374 1.81857,-1.4305 14.83479,-16.92176 19.56763,-23.28846 5.85807,-7.88035 7.42879,-8.53854 14.61144,-6.12279 8.81812,2.9658 52.31994,24.25833 54.49159,26.67158 0.69373,0.77101 1.43008,2.52011 1.63627,3.88704 0.88905,5.89309 -2.03075,21.53655 -5.31559,28.48022 -4.68902,9.91174 -22.649,22.7904 -36.93857,26.48771 -6.93329,1.79397 -21.13938,2.1053 -29.06801,0.63698 z"
       id="path2" /></g></svg>
